<svg width="493" height="44" viewBox="0 0 493 44" fill="none" xmlns="http://www.w3.org/2000/svg">
<path d="M14.336 36.032V26.432H58.112V36.032H14.336ZM0 42.24L27.456 1.28H45.248L72.96 42.24H55.36L31.616 5.568H41.152L17.6 42.24H0Z" fill="#0C0C0E"/>
<path d="M132.439 18.88V1.28H148.439V21.76C148.439 25.3867 147.756 28.48 146.391 31.04C145.068 33.5573 143.212 35.648 140.822 37.312C138.433 38.9333 135.681 40.192 132.566 41.088C129.452 41.984 126.103 42.6027 122.519 42.944C118.977 43.328 115.372 43.52 111.702 43.52C107.82 43.52 104.065 43.328 100.438 42.944C96.8118 42.6027 93.4412 41.984 90.3265 41.088C87.2545 40.192 84.5665 38.9333 82.2625 37.312C79.9585 35.648 78.1452 33.5573 76.8225 31.04C75.5425 28.48 74.9025 25.3867 74.9025 21.76V1.28H90.9025V18.88C90.9025 22.2933 91.7345 24.896 93.3985 26.688C95.0625 28.48 97.4305 29.7173 100.503 30.4C103.617 31.04 107.351 31.36 111.702 31.36C115.926 31.36 119.596 31.04 122.711 30.4C125.825 29.7173 128.214 28.48 129.878 26.688C131.585 24.896 132.439 22.2933 132.439 18.88Z" fill="#0C0C0E"/>
<path d="M194.715 43.52C189.168 43.52 184.069 43.1787 179.419 42.496C174.811 41.856 170.8 40.7467 167.387 39.168C164.016 37.5467 161.392 35.3493 159.514 32.576C157.68 29.8027 156.762 26.304 156.762 22.08C156.762 17.856 157.701 14.336 159.579 11.52C161.456 8.66133 164.144 6.4 167.643 4.736C171.184 3.02933 175.387 1.81333 180.251 1.088C185.157 0.362667 190.618 0 196.635 0C204.528 0 211.141 0.725333 216.475 2.176C221.851 3.62667 225.947 5.696 228.762 8.384C231.578 11.0293 233.093 14.1867 233.307 17.856H216.667C216.155 16.9173 215.216 16.0213 213.85 15.168C212.485 14.272 210.437 13.5467 207.706 12.992C204.976 12.4373 201.285 12.16 196.635 12.16C191.173 12.16 186.736 12.5013 183.322 13.184C179.909 13.824 177.413 14.8693 175.835 16.32C174.256 17.7707 173.467 19.6907 173.467 22.08C173.467 24.1707 174.277 25.8987 175.898 27.264C177.52 28.6293 180.122 29.6533 183.706 30.336C187.29 31.0187 192.027 31.36 197.915 31.36C202.053 31.36 205.637 31.1893 208.667 30.848C211.738 30.464 214.512 29.888 216.986 29.12C219.504 28.352 222 27.392 224.475 26.24L226.01 28.096C223.365 33.088 219.44 36.9067 214.234 39.552C209.029 42.1973 202.523 43.52 194.715 43.52ZM221.658 42.24C221.658 40.96 221.829 39.5093 222.171 37.888C222.512 36.2667 222.939 34.5813 223.451 32.832C224.005 31.04 224.538 29.3547 225.051 27.776H200.09V21.056H234.202V42.24H221.658Z" fill="#0C0C0E"/>
<path d="M300.689 18.88V1.28H316.689V21.76C316.689 25.3867 316.006 28.48 314.641 31.04C313.318 33.5573 311.462 35.648 309.073 37.312C306.683 38.9333 303.931 40.192 300.816 41.088C297.702 41.984 294.353 42.6027 290.768 42.944C287.227 43.328 283.622 43.52 279.953 43.52C276.07 43.52 272.315 43.328 268.689 42.944C265.062 42.6027 261.691 41.984 258.577 41.088C255.505 40.192 252.816 38.9333 250.512 37.312C248.208 35.648 246.395 33.5573 245.072 31.04C243.792 28.48 243.152 25.3867 243.152 21.76V1.28H259.152V18.88C259.152 22.2933 259.984 24.896 261.648 26.688C263.312 28.48 265.681 29.7173 268.753 30.4C271.867 31.04 275.601 31.36 279.953 31.36C284.177 31.36 287.846 31.04 290.961 30.4C294.075 29.7173 296.465 28.48 298.129 26.688C299.835 24.896 300.689 22.2933 300.689 18.88Z" fill="#0C0C0E"/>
<path d="M325.652 42.24V1.28H375.125C379.007 1.28 382.484 1.728 385.556 2.624C388.671 3.47733 391.125 4.928 392.917 6.976C394.751 9.024 395.668 11.8187 395.668 15.36C395.668 17.7067 395.242 19.648 394.388 21.184C393.535 22.72 392.362 23.9147 390.868 24.768C389.375 25.6213 387.669 26.24 385.749 26.624C383.828 27.008 381.823 27.2427 379.733 27.328L375.061 26.432C380.138 26.4747 384.042 26.688 386.772 27.072C389.546 27.456 391.466 28.16 392.533 29.184C393.642 30.1653 394.197 31.5947 394.197 33.472V42.24H378.197V35.392C378.197 34.112 377.94 33.152 377.428 32.512C376.959 31.8293 375.893 31.36 374.229 31.104C372.607 30.848 370.09 30.72 366.677 30.72H341.652V42.24H325.652ZM341.652 20.032H375.125C376.405 20.032 377.471 19.8187 378.324 19.392C379.22 18.9653 379.668 18.1547 379.668 16.96C379.668 15.8507 379.22 15.104 378.324 14.72C377.471 14.2933 376.405 14.08 375.125 14.08H341.652V20.032Z" fill="#0C0C0E"/>
<path d="M420.527 24.96V30.08H469.168V42.24H404.527V1.28H469.039V13.44H420.527V18.56H460.207V24.96H420.527Z" fill="#0C0C0E"/>
<path d="M476.36 32.8168H492.143V42.2399H476.36V32.8168Z" fill="#4127FF"/>
</svg>
