<svg width="612" height="243" viewBox="0 0 612 243" fill="none" xmlns="http://www.w3.org/2000/svg">
<path d="M40 42C40 40.8954 40.8954 40 42 40H570C571.105 40 572 40.8954 572 42V201C572 202.105 571.105 203 570 203H42C40.8954 203 40 202.105 40 201V42Z" fill="white"/>
<path d="M42 40V41H570V40V39H42V40ZM572 42H571V201H572H573V42H572ZM570 203V202H42V203V204H570V203ZM40 201H41V42H40H39V201H40ZM42 203V202C41.4477 202 41 201.552 41 201H40H39C39 202.657 40.3431 204 42 204V203ZM572 201H571C571 201.552 570.552 202 570 202V203V204C571.657 204 573 202.657 573 201H572ZM570 40V41C570.552 41 571 41.4477 571 42H572H573C573 40.3432 571.657 39 570 39V40ZM42 40V39C40.3431 39 39 40.3431 39 42H40H41C41 41.4477 41.4477 41 42 41V40Z" fill="white" fill-opacity="0.1"/>
<rect x="49" y="160.193" width="85" height="21" rx="5" fill="#EDFAF4"/>
<path d="M61.5898 175.193V169.611L59.5078 171.701L58.5938 170.795L62.25 167.146L65.8984 170.795L65 171.701L62.9102 169.611V175.193H61.5898ZM70.7363 175.193V167.193H76.127V168.588H72.4277V170.494H75.8496V171.888H72.4277V173.799H76.1426V175.193H70.7363ZM79.1045 171.724V175.193H77.4404V169.193H79.0264V170.252H79.0967C79.2295 169.903 79.4521 169.627 79.7646 169.424C80.0771 169.218 80.4561 169.115 80.9014 169.115C81.318 169.115 81.6813 169.206 81.9912 169.388C82.3011 169.571 82.542 169.831 82.7139 170.17C82.8857 170.506 82.9717 170.907 82.9717 171.373V175.193H81.3076V171.67C81.3102 171.302 81.2165 171.016 81.0264 170.81C80.8363 170.602 80.5745 170.498 80.2412 170.498C80.0173 170.498 79.8193 170.546 79.6475 170.642C79.4782 170.739 79.3454 170.879 79.249 171.064C79.1553 171.246 79.1071 171.466 79.1045 171.724ZM88.4932 171.724V175.193H86.8291V167.193H88.4463V170.252H88.5166C88.652 169.897 88.8708 169.62 89.1729 169.42C89.4749 169.216 89.8538 169.115 90.3096 169.115C90.7262 169.115 91.0895 169.206 91.3994 169.388C91.7119 169.568 91.9541 169.827 92.126 170.166C92.3005 170.502 92.3864 170.904 92.3838 171.373V175.193H90.7197V171.67C90.7223 171.3 90.6286 171.012 90.4385 170.806C90.251 170.601 89.988 170.498 89.6494 170.498C89.4229 170.498 89.2223 170.546 89.0479 170.642C88.876 170.739 88.7406 170.879 88.6416 171.064C88.5452 171.246 88.4958 171.466 88.4932 171.724ZM95.4043 175.306C95.0215 175.306 94.6803 175.24 94.3809 175.107C94.0814 174.972 93.8444 174.772 93.6699 174.509C93.498 174.244 93.4121 173.913 93.4121 173.517C93.4121 173.184 93.4733 172.904 93.5957 172.677C93.7181 172.451 93.8848 172.269 94.0957 172.131C94.3066 171.993 94.5462 171.888 94.8145 171.818C95.0853 171.748 95.3691 171.698 95.666 171.67C96.015 171.633 96.2962 171.599 96.5098 171.568C96.7233 171.534 96.8783 171.485 96.9746 171.42C97.071 171.355 97.1191 171.258 97.1191 171.131V171.107C97.1191 170.86 97.041 170.668 96.8848 170.533C96.7311 170.397 96.5124 170.33 96.2285 170.33C95.929 170.33 95.6908 170.396 95.5137 170.529C95.3366 170.659 95.2194 170.823 95.1621 171.021L93.623 170.896C93.7012 170.532 93.8548 170.216 94.084 169.951C94.3132 169.683 94.6087 169.477 94.9707 169.334C95.3353 169.188 95.7572 169.115 96.2363 169.115C96.5697 169.115 96.8887 169.154 97.1934 169.232C97.5007 169.31 97.7728 169.431 98.0098 169.595C98.2493 169.759 98.4382 169.97 98.5762 170.228C98.7142 170.483 98.7832 170.789 98.7832 171.146V175.193H97.2051V174.361H97.1582C97.0618 174.549 96.9329 174.714 96.7715 174.857C96.61 174.998 96.416 175.108 96.1895 175.189C95.9629 175.267 95.7012 175.306 95.4043 175.306ZM95.8809 174.158C96.1257 174.158 96.3418 174.11 96.5293 174.013C96.7168 173.914 96.8639 173.782 96.9707 173.615C97.0775 173.448 97.1309 173.259 97.1309 173.049V172.412C97.0788 172.446 97.0072 172.477 96.916 172.506C96.8275 172.532 96.7272 172.556 96.6152 172.58C96.5033 172.601 96.3913 172.62 96.2793 172.638C96.1673 172.654 96.0658 172.668 95.9746 172.681C95.7793 172.71 95.6087 172.756 95.4629 172.818C95.3171 172.881 95.2038 172.965 95.123 173.072C95.0423 173.176 95.002 173.306 95.002 173.463C95.002 173.689 95.084 173.862 95.248 173.982C95.4147 174.099 95.6257 174.158 95.8809 174.158ZM103.922 172.638V169.193H105.586V175.193H103.988V174.103H103.926C103.79 174.455 103.565 174.737 103.25 174.951C102.938 175.164 102.556 175.271 102.105 175.271C101.704 175.271 101.352 175.18 101.047 174.998C100.742 174.815 100.504 174.556 100.332 174.22C100.163 173.884 100.077 173.482 100.074 173.013V169.193H101.738V172.716C101.741 173.071 101.836 173.351 102.023 173.556C102.211 173.762 102.462 173.865 102.777 173.865C102.978 173.865 103.165 173.819 103.34 173.728C103.514 173.634 103.655 173.496 103.762 173.314C103.871 173.132 103.924 172.907 103.922 172.638ZM111.909 170.904L110.386 170.998C110.36 170.868 110.304 170.75 110.218 170.646C110.132 170.539 110.019 170.455 109.878 170.392C109.74 170.327 109.575 170.295 109.382 170.295C109.124 170.295 108.907 170.349 108.729 170.459C108.552 170.565 108.464 170.709 108.464 170.888C108.464 171.032 108.521 171.153 108.636 171.252C108.75 171.351 108.947 171.43 109.226 171.49L110.312 171.709C110.895 171.828 111.33 172.021 111.616 172.287C111.903 172.552 112.046 172.901 112.046 173.334C112.046 173.727 111.93 174.072 111.698 174.369C111.469 174.666 111.154 174.897 110.753 175.064C110.354 175.228 109.895 175.31 109.374 175.31C108.58 175.31 107.947 175.145 107.476 174.814C107.007 174.481 106.732 174.028 106.651 173.455L108.288 173.369C108.338 173.611 108.457 173.796 108.647 173.924C108.838 174.049 109.081 174.111 109.378 174.111C109.67 174.111 109.904 174.055 110.081 173.943C110.261 173.828 110.352 173.681 110.354 173.502C110.352 173.351 110.288 173.227 110.163 173.131C110.038 173.032 109.845 172.956 109.585 172.904L108.546 172.697C107.96 172.58 107.524 172.377 107.237 172.088C106.953 171.799 106.812 171.43 106.812 170.982C106.812 170.597 106.916 170.265 107.124 169.986C107.335 169.707 107.631 169.493 108.011 169.341C108.394 169.19 108.841 169.115 109.354 169.115C110.112 169.115 110.709 169.275 111.144 169.595C111.581 169.916 111.836 170.352 111.909 170.904ZM118.086 170.904L116.563 170.998C116.536 170.868 116.48 170.75 116.395 170.646C116.309 170.539 116.195 170.455 116.055 170.392C115.917 170.327 115.751 170.295 115.559 170.295C115.301 170.295 115.083 170.349 114.906 170.459C114.729 170.565 114.641 170.709 114.641 170.888C114.641 171.032 114.698 171.153 114.813 171.252C114.927 171.351 115.124 171.43 115.402 171.49L116.488 171.709C117.072 171.828 117.507 172.021 117.793 172.287C118.079 172.552 118.223 172.901 118.223 173.334C118.223 173.727 118.107 174.072 117.875 174.369C117.646 174.666 117.331 174.897 116.93 175.064C116.531 175.228 116.072 175.31 115.551 175.31C114.757 175.31 114.124 175.145 113.652 174.814C113.184 174.481 112.909 174.028 112.828 173.455L114.465 173.369C114.514 173.611 114.634 173.796 114.824 173.924C115.014 174.049 115.258 174.111 115.555 174.111C115.846 174.111 116.081 174.055 116.258 173.943C116.438 173.828 116.529 173.681 116.531 173.502C116.529 173.351 116.465 173.227 116.34 173.131C116.215 173.032 116.022 172.956 115.762 172.904L114.723 172.697C114.137 172.58 113.701 172.377 113.414 172.088C113.13 171.799 112.988 171.43 112.988 170.982C112.988 170.597 113.092 170.265 113.301 169.986C113.512 169.707 113.807 169.493 114.188 169.341C114.57 169.19 115.018 169.115 115.531 169.115C116.289 169.115 116.885 169.275 117.32 169.595C117.758 169.916 118.013 170.352 118.086 170.904ZM122.005 175.31C121.388 175.31 120.856 175.185 120.411 174.935C119.968 174.683 119.627 174.326 119.388 173.865C119.148 173.401 119.028 172.853 119.028 172.22C119.028 171.603 119.148 171.062 119.388 170.595C119.627 170.129 119.965 169.766 120.399 169.506C120.837 169.245 121.35 169.115 121.938 169.115C122.334 169.115 122.703 169.179 123.044 169.306C123.388 169.431 123.687 169.62 123.942 169.873C124.2 170.125 124.401 170.443 124.544 170.826C124.687 171.206 124.759 171.651 124.759 172.162V172.619H119.692V171.588H123.192C123.192 171.348 123.14 171.136 123.036 170.951C122.932 170.766 122.787 170.621 122.603 170.517C122.42 170.411 122.208 170.357 121.966 170.357C121.713 170.357 121.489 170.416 121.294 170.533C121.101 170.647 120.95 170.802 120.841 170.998C120.731 171.19 120.675 171.405 120.673 171.642V172.623C120.673 172.92 120.728 173.176 120.837 173.392C120.949 173.608 121.106 173.775 121.31 173.892C121.513 174.009 121.754 174.068 122.032 174.068C122.217 174.068 122.386 174.042 122.54 173.99C122.694 173.938 122.825 173.86 122.935 173.756C123.044 173.651 123.127 173.524 123.185 173.373L124.724 173.474C124.646 173.844 124.485 174.167 124.243 174.443C124.004 174.716 123.694 174.93 123.313 175.084C122.936 175.235 122.5 175.31 122.005 175.31Z" fill="#0EA15E"/>
<rect x="146" y="160.193" width="82" height="21" rx="5" fill="#EDFAF4"/>
<path d="M158.59 175.193V169.611L156.508 171.701L155.594 170.795L159.25 167.146L162.898 170.795L162 171.701L159.91 169.611V175.193H158.59ZM167.736 175.193V167.193H173.127V168.588H169.428V170.494H172.85V171.888H169.428V173.799H173.143V175.193H167.736ZM169.846 166.42L170.674 164.642H172.213L171.021 166.42H169.846ZM174.44 175.193V169.193H176.026V170.252H176.097C176.222 169.9 176.43 169.623 176.722 169.42C177.013 169.216 177.362 169.115 177.769 169.115C178.18 169.115 178.53 169.218 178.819 169.424C179.108 169.627 179.301 169.903 179.397 170.252H179.46C179.582 169.908 179.804 169.633 180.124 169.427C180.447 169.219 180.828 169.115 181.269 169.115C181.828 169.115 182.283 169.293 182.632 169.65C182.983 170.004 183.159 170.507 183.159 171.158V175.193H181.499V171.486C181.499 171.153 181.41 170.903 181.233 170.736C181.056 170.569 180.835 170.486 180.569 170.486C180.267 170.486 180.032 170.582 179.862 170.775C179.693 170.965 179.608 171.216 179.608 171.529V175.193H177.995V171.451C177.995 171.157 177.91 170.922 177.741 170.748C177.575 170.573 177.354 170.486 177.081 170.486C176.896 170.486 176.729 170.533 176.581 170.627C176.435 170.718 176.319 170.847 176.233 171.013C176.147 171.177 176.104 171.37 176.104 171.591V175.193H174.44ZM187.208 175.31C186.591 175.31 186.06 175.185 185.614 174.935C185.172 174.683 184.83 174.326 184.591 173.865C184.351 173.401 184.231 172.853 184.231 172.22C184.231 171.603 184.351 171.062 184.591 170.595C184.83 170.129 185.168 169.766 185.603 169.506C186.04 169.245 186.553 169.115 187.142 169.115C187.537 169.115 187.906 169.179 188.247 169.306C188.591 169.431 188.89 169.62 189.146 169.873C189.403 170.125 189.604 170.443 189.747 170.826C189.89 171.206 189.962 171.651 189.962 172.162V172.619H184.896V171.588H188.396C188.396 171.348 188.343 171.136 188.239 170.951C188.135 170.766 187.991 170.621 187.806 170.517C187.623 170.411 187.411 170.357 187.169 170.357C186.916 170.357 186.692 170.416 186.497 170.533C186.304 170.647 186.153 170.802 186.044 170.998C185.935 171.19 185.879 171.405 185.876 171.642V172.623C185.876 172.92 185.931 173.176 186.04 173.392C186.152 173.608 186.31 173.775 186.513 173.892C186.716 174.009 186.957 174.068 187.235 174.068C187.42 174.068 187.59 174.042 187.743 173.99C187.897 173.938 188.028 173.86 188.138 173.756C188.247 173.651 188.33 173.524 188.388 173.373L189.927 173.474C189.849 173.844 189.688 174.167 189.446 174.443C189.207 174.716 188.897 174.93 188.517 175.084C188.139 175.235 187.703 175.31 187.208 175.31ZM191.048 175.193V169.193H192.661V170.24H192.724C192.833 169.868 193.017 169.586 193.274 169.396C193.532 169.203 193.829 169.107 194.165 169.107C194.248 169.107 194.338 169.112 194.435 169.123C194.531 169.133 194.616 169.147 194.688 169.166V170.642C194.61 170.619 194.502 170.598 194.364 170.58C194.226 170.562 194.1 170.552 193.985 170.552C193.741 170.552 193.522 170.606 193.329 170.713C193.139 170.817 192.988 170.963 192.876 171.15C192.767 171.338 192.712 171.554 192.712 171.799V175.193H191.048ZM197.973 177.568C197.434 177.568 196.971 177.494 196.586 177.345C196.203 177.2 195.898 177 195.672 176.748C195.445 176.495 195.298 176.211 195.23 175.896L196.77 175.689C196.816 175.809 196.891 175.921 196.992 176.025C197.094 176.129 197.228 176.213 197.395 176.275C197.564 176.34 197.77 176.373 198.012 176.373C198.374 176.373 198.672 176.284 198.906 176.107C199.143 175.933 199.262 175.64 199.262 175.228V174.131H199.191C199.118 174.297 199.009 174.455 198.863 174.603C198.717 174.752 198.53 174.873 198.301 174.966C198.072 175.06 197.798 175.107 197.48 175.107C197.03 175.107 196.62 175.003 196.25 174.795C195.883 174.584 195.59 174.262 195.371 173.83C195.155 173.395 195.047 172.845 195.047 172.181C195.047 171.502 195.158 170.934 195.379 170.478C195.6 170.022 195.895 169.681 196.262 169.455C196.632 169.228 197.036 169.115 197.477 169.115C197.813 169.115 198.094 169.172 198.32 169.287C198.547 169.399 198.729 169.539 198.867 169.709C199.008 169.875 199.116 170.039 199.191 170.201H199.254V169.193H200.906V175.252C200.906 175.762 200.781 176.189 200.531 176.533C200.281 176.877 199.935 177.134 199.492 177.306C199.052 177.481 198.546 177.568 197.973 177.568ZM198.008 173.857C198.276 173.857 198.503 173.791 198.688 173.658C198.875 173.522 199.018 173.33 199.117 173.08C199.219 172.827 199.27 172.525 199.27 172.174C199.27 171.822 199.22 171.517 199.121 171.259C199.022 170.999 198.879 170.797 198.691 170.654C198.504 170.511 198.276 170.439 198.008 170.439C197.734 170.439 197.504 170.513 197.316 170.662C197.129 170.808 196.987 171.011 196.891 171.271C196.794 171.532 196.746 171.832 196.746 172.174C196.746 172.52 196.794 172.819 196.891 173.072C196.99 173.322 197.132 173.516 197.316 173.654C197.504 173.789 197.734 173.857 198.008 173.857ZM204.965 175.31C204.348 175.31 203.816 175.185 203.371 174.935C202.928 174.683 202.587 174.326 202.348 173.865C202.108 173.401 201.988 172.853 201.988 172.22C201.988 171.603 202.108 171.062 202.348 170.595C202.587 170.129 202.924 169.766 203.359 169.506C203.797 169.245 204.31 169.115 204.898 169.115C205.294 169.115 205.663 169.179 206.004 169.306C206.348 169.431 206.647 169.62 206.902 169.873C207.16 170.125 207.361 170.443 207.504 170.826C207.647 171.206 207.719 171.651 207.719 172.162V172.619H202.652V171.588H206.152C206.152 171.348 206.1 171.136 205.996 170.951C205.892 170.766 205.747 170.621 205.562 170.517C205.38 170.411 205.168 170.357 204.926 170.357C204.673 170.357 204.449 170.416 204.254 170.533C204.061 170.647 203.91 170.802 203.801 170.998C203.691 171.19 203.635 171.405 203.633 171.642V172.623C203.633 172.92 203.688 173.176 203.797 173.392C203.909 173.608 204.066 173.775 204.27 173.892C204.473 174.009 204.714 174.068 204.992 174.068C205.177 174.068 205.346 174.042 205.5 173.99C205.654 173.938 205.785 173.86 205.895 173.756C206.004 173.651 206.087 173.524 206.145 173.373L207.684 173.474C207.605 173.844 207.445 174.167 207.203 174.443C206.964 174.716 206.654 174.93 206.273 175.084C205.896 175.235 205.46 175.31 204.965 175.31ZM210.469 171.724V175.193H208.805V169.193H210.391V170.252H210.461C210.594 169.903 210.816 169.627 211.129 169.424C211.441 169.218 211.82 169.115 212.266 169.115C212.682 169.115 213.046 169.206 213.355 169.388C213.665 169.571 213.906 169.831 214.078 170.17C214.25 170.506 214.336 170.907 214.336 171.373V175.193H212.672V171.67C212.674 171.302 212.581 171.016 212.391 170.81C212.201 170.602 211.939 170.498 211.605 170.498C211.382 170.498 211.184 170.546 211.012 170.642C210.842 170.739 210.71 170.879 210.613 171.064C210.52 171.246 210.471 171.466 210.469 171.724ZM218.839 169.193V170.443H215.226V169.193H218.839ZM216.046 167.756H217.71V173.349C217.71 173.503 217.733 173.623 217.78 173.709C217.827 173.792 217.892 173.851 217.976 173.884C218.062 173.918 218.16 173.935 218.272 173.935C218.351 173.935 218.429 173.929 218.507 173.916C218.585 173.9 218.645 173.888 218.687 173.881L218.948 175.119C218.865 175.145 218.748 175.175 218.597 175.209C218.446 175.245 218.262 175.267 218.046 175.275C217.645 175.291 217.293 175.237 216.991 175.115C216.692 174.993 216.459 174.802 216.292 174.545C216.125 174.287 216.043 173.961 216.046 173.568V167.756Z" fill="#0EA15E"/>
<rect x="240" y="160.193" width="64" height="21" rx="5" fill="#F2F2F8"/>
<path d="M253.477 175.131L252.57 174.232L254.949 171.853H249.375V170.533H254.949L252.57 168.158L253.477 167.256L257.414 171.193L253.477 175.131ZM266.076 169.494C266.045 169.179 265.911 168.934 265.674 168.759C265.437 168.585 265.115 168.498 264.709 168.498C264.433 168.498 264.2 168.537 264.01 168.615C263.82 168.69 263.674 168.796 263.572 168.931C263.473 169.067 263.424 169.22 263.424 169.392C263.419 169.536 263.449 169.661 263.514 169.767C263.581 169.874 263.674 169.966 263.791 170.045C263.908 170.12 264.044 170.187 264.197 170.244C264.351 170.299 264.515 170.345 264.689 170.384L265.408 170.556C265.757 170.634 266.077 170.739 266.369 170.869C266.661 170.999 266.913 171.159 267.127 171.349C267.34 171.539 267.506 171.763 267.623 172.021C267.743 172.279 267.804 172.575 267.807 172.908C267.804 173.397 267.679 173.822 267.432 174.181C267.187 174.538 266.833 174.815 266.369 175.013C265.908 175.209 265.352 175.306 264.701 175.306C264.055 175.306 263.493 175.207 263.014 175.009C262.537 174.812 262.165 174.519 261.896 174.131C261.631 173.74 261.492 173.257 261.479 172.681H263.115C263.133 172.95 263.21 173.174 263.346 173.353C263.484 173.53 263.667 173.664 263.896 173.756C264.128 173.844 264.39 173.888 264.682 173.888C264.968 173.888 265.217 173.847 265.428 173.763C265.641 173.68 265.807 173.564 265.924 173.416C266.041 173.267 266.1 173.097 266.1 172.904C266.1 172.724 266.046 172.573 265.939 172.451C265.835 172.328 265.682 172.224 265.479 172.138C265.278 172.052 265.032 171.974 264.74 171.904L263.869 171.685C263.195 171.521 262.662 171.265 262.271 170.916C261.881 170.567 261.687 170.097 261.689 169.506C261.687 169.021 261.816 168.598 262.076 168.236C262.339 167.874 262.7 167.591 263.158 167.388C263.617 167.185 264.137 167.084 264.721 167.084C265.314 167.084 265.833 167.185 266.275 167.388C266.721 167.591 267.067 167.874 267.314 168.236C267.562 168.598 267.689 169.017 267.697 169.494H266.076ZM272.104 169.193V170.443H268.491V169.193H272.104ZM269.312 167.756H270.976V173.349C270.976 173.503 270.999 173.623 271.046 173.709C271.093 173.792 271.158 173.851 271.241 173.884C271.327 173.918 271.426 173.935 271.538 173.935C271.616 173.935 271.694 173.929 271.772 173.916C271.851 173.9 271.91 173.888 271.952 173.881L272.214 175.119C272.131 175.145 272.013 175.175 271.862 175.209C271.711 175.245 271.528 175.267 271.312 175.275C270.91 175.291 270.559 175.237 270.257 175.115C269.957 174.993 269.724 174.802 269.558 174.545C269.391 174.287 269.309 173.961 269.312 173.568V167.756ZM274.899 175.306C274.517 175.306 274.175 175.24 273.876 175.107C273.576 174.972 273.34 174.772 273.165 174.509C272.993 174.244 272.907 173.913 272.907 173.517C272.907 173.184 272.968 172.904 273.091 172.677C273.213 172.451 273.38 172.269 273.591 172.131C273.802 171.993 274.041 171.888 274.31 171.818C274.58 171.748 274.864 171.698 275.161 171.67C275.51 171.633 275.791 171.599 276.005 171.568C276.218 171.534 276.373 171.485 276.47 171.42C276.566 171.355 276.614 171.258 276.614 171.131V171.107C276.614 170.86 276.536 170.668 276.38 170.533C276.226 170.397 276.007 170.33 275.724 170.33C275.424 170.33 275.186 170.396 275.009 170.529C274.832 170.659 274.715 170.823 274.657 171.021L273.118 170.896C273.196 170.532 273.35 170.216 273.579 169.951C273.808 169.683 274.104 169.477 274.466 169.334C274.83 169.188 275.252 169.115 275.731 169.115C276.065 169.115 276.384 169.154 276.688 169.232C276.996 169.31 277.268 169.431 277.505 169.595C277.744 169.759 277.933 169.97 278.071 170.228C278.209 170.483 278.278 170.789 278.278 171.146V175.193H276.7V174.361H276.653C276.557 174.549 276.428 174.714 276.267 174.857C276.105 174.998 275.911 175.108 275.685 175.189C275.458 175.267 275.196 175.306 274.899 175.306ZM275.376 174.158C275.621 174.158 275.837 174.11 276.024 174.013C276.212 173.914 276.359 173.782 276.466 173.615C276.573 173.448 276.626 173.259 276.626 173.049V172.412C276.574 172.446 276.502 172.477 276.411 172.506C276.323 172.532 276.222 172.556 276.11 172.58C275.998 172.601 275.886 172.62 275.774 172.638C275.662 172.654 275.561 172.668 275.47 172.681C275.274 172.71 275.104 172.756 274.958 172.818C274.812 172.881 274.699 172.965 274.618 173.072C274.537 173.176 274.497 173.306 274.497 173.463C274.497 173.689 274.579 173.862 274.743 173.982C274.91 174.099 275.121 174.158 275.376 174.158ZM279.601 175.193V167.193H281.265V170.201H281.315C281.388 170.039 281.494 169.875 281.632 169.709C281.772 169.539 281.955 169.399 282.179 169.287C282.405 169.172 282.687 169.115 283.022 169.115C283.46 169.115 283.864 169.23 284.233 169.459C284.603 169.685 284.899 170.028 285.12 170.486C285.341 170.942 285.452 171.513 285.452 172.201C285.452 172.87 285.344 173.435 285.128 173.896C284.914 174.355 284.623 174.702 284.253 174.939C283.886 175.174 283.474 175.291 283.019 175.291C282.696 175.291 282.421 175.237 282.194 175.131C281.97 175.024 281.787 174.89 281.644 174.728C281.5 174.564 281.391 174.399 281.315 174.232H281.241V175.193H279.601ZM281.229 172.193C281.229 172.55 281.279 172.861 281.378 173.127C281.477 173.392 281.62 173.599 281.808 173.748C281.995 173.894 282.223 173.966 282.491 173.966C282.762 173.966 282.991 173.892 283.179 173.744C283.366 173.593 283.508 173.384 283.604 173.119C283.703 172.851 283.753 172.542 283.753 172.193C283.753 171.847 283.705 171.542 283.608 171.279C283.512 171.016 283.37 170.81 283.183 170.662C282.995 170.513 282.765 170.439 282.491 170.439C282.22 170.439 281.991 170.511 281.804 170.654C281.619 170.797 281.477 171 281.378 171.263C281.279 171.526 281.229 171.836 281.229 172.193ZM288.227 167.193V175.193H286.563V167.193H288.227ZM292.294 175.31C291.677 175.31 291.146 175.185 290.7 174.935C290.257 174.683 289.916 174.326 289.677 173.865C289.437 173.401 289.317 172.853 289.317 172.22C289.317 171.603 289.437 171.062 289.677 170.595C289.916 170.129 290.254 169.766 290.688 169.506C291.126 169.245 291.639 169.115 292.228 169.115C292.623 169.115 292.992 169.179 293.333 169.306C293.677 169.431 293.976 169.62 294.231 169.873C294.489 170.125 294.69 170.443 294.833 170.826C294.976 171.206 295.048 171.651 295.048 172.162V172.619H289.981V171.588H293.481C293.481 171.348 293.429 171.136 293.325 170.951C293.221 170.766 293.076 170.621 292.892 170.517C292.709 170.411 292.497 170.357 292.255 170.357C292.002 170.357 291.778 170.416 291.583 170.533C291.39 170.647 291.239 170.802 291.13 170.998C291.021 171.19 290.965 171.405 290.962 171.642V172.623C290.962 172.92 291.017 173.176 291.126 173.392C291.238 173.608 291.396 173.775 291.599 173.892C291.802 174.009 292.043 174.068 292.321 174.068C292.506 174.068 292.675 174.042 292.829 173.99C292.983 173.938 293.114 173.86 293.224 173.756C293.333 173.651 293.416 173.524 293.474 173.373L295.013 173.474C294.935 173.844 294.774 174.167 294.532 174.443C294.293 174.716 293.983 174.93 293.603 175.084C293.225 175.235 292.789 175.31 292.294 175.31Z" fill="#6B6B7B"/>
<rect x="316" y="160.193" width="79" height="21" rx="5" fill="#C87B40"/>
<path d="M329.91 167.193V172.775L331.992 170.685L332.906 171.591L329.25 175.24L325.602 171.591L326.5 170.685L328.59 172.775V167.193H329.91ZM337.736 175.193V167.193H343.127V168.588H339.428V170.494H342.85V171.888H339.428V173.799H343.143V175.193H337.736ZM346.104 171.724V175.193H344.44V169.193H346.026V170.252H346.097C346.229 169.903 346.452 169.627 346.765 169.424C347.077 169.218 347.456 169.115 347.901 169.115C348.318 169.115 348.681 169.206 348.991 169.388C349.301 169.571 349.542 169.831 349.714 170.17C349.886 170.506 349.972 170.907 349.972 171.373V175.193H348.308V171.67C348.31 171.302 348.216 171.016 348.026 170.81C347.836 170.602 347.575 170.498 347.241 170.498C347.017 170.498 346.819 170.546 346.647 170.642C346.478 170.739 346.345 170.879 346.249 171.064C346.155 171.246 346.107 171.466 346.104 171.724ZM356.04 175.291C355.584 175.291 355.172 175.174 354.802 174.939C354.435 174.702 354.143 174.355 353.927 173.896C353.713 173.435 353.606 172.87 353.606 172.201C353.606 171.513 353.717 170.942 353.938 170.486C354.16 170.028 354.454 169.685 354.821 169.459C355.191 169.23 355.596 169.115 356.036 169.115C356.372 169.115 356.652 169.172 356.876 169.287C357.103 169.399 357.285 169.539 357.423 169.709C357.563 169.875 357.67 170.039 357.743 170.201H357.794V167.193H359.454V175.193H357.813V174.232H357.743C357.665 174.399 357.554 174.564 357.411 174.728C357.271 174.89 357.087 175.024 356.86 175.131C356.636 175.237 356.363 175.291 356.04 175.291ZM356.567 173.966C356.836 173.966 357.062 173.894 357.247 173.748C357.435 173.599 357.578 173.392 357.677 173.127C357.778 172.861 357.829 172.55 357.829 172.193C357.829 171.836 357.78 171.526 357.681 171.263C357.582 171 357.438 170.797 357.251 170.654C357.063 170.511 356.836 170.439 356.567 170.439C356.294 170.439 356.063 170.513 355.876 170.662C355.688 170.81 355.547 171.016 355.45 171.279C355.354 171.542 355.306 171.847 355.306 172.193C355.306 172.542 355.354 172.851 355.45 173.119C355.549 173.384 355.691 173.593 355.876 173.744C356.063 173.892 356.294 173.966 356.567 173.966ZM363.557 175.31C362.939 175.31 362.408 175.185 361.963 174.935C361.52 174.683 361.179 174.326 360.939 173.865C360.7 173.401 360.58 172.853 360.58 172.22C360.58 171.603 360.7 171.062 360.939 170.595C361.179 170.129 361.516 169.766 361.951 169.506C362.389 169.245 362.902 169.115 363.49 169.115C363.886 169.115 364.255 169.179 364.596 169.306C364.939 169.431 365.239 169.62 365.494 169.873C365.752 170.125 365.952 170.443 366.096 170.826C366.239 171.206 366.311 171.651 366.311 172.162V172.619H361.244V171.588H364.744C364.744 171.348 364.692 171.136 364.588 170.951C364.484 170.766 364.339 170.621 364.154 170.517C363.972 170.411 363.76 170.357 363.518 170.357C363.265 170.357 363.041 170.416 362.846 170.533C362.653 170.647 362.502 170.802 362.393 170.998C362.283 171.19 362.227 171.405 362.225 171.642V172.623C362.225 172.92 362.279 173.176 362.389 173.392C362.501 173.608 362.658 173.775 362.861 173.892C363.064 174.009 363.305 174.068 363.584 174.068C363.769 174.068 363.938 174.042 364.092 173.99C364.245 173.938 364.377 173.86 364.486 173.756C364.596 173.651 364.679 173.524 364.736 173.373L366.275 173.474C366.197 173.844 366.037 174.167 365.795 174.443C365.555 174.716 365.245 174.93 364.865 175.084C364.488 175.235 364.051 175.31 363.557 175.31ZM362.854 168.42L363.682 166.642H365.221L364.029 168.42H362.854ZM370.107 175.31C369.493 175.31 368.964 175.18 368.521 174.92C368.081 174.657 367.743 174.292 367.506 173.826C367.271 173.36 367.154 172.823 367.154 172.216C367.154 171.602 367.273 171.063 367.51 170.599C367.749 170.133 368.089 169.77 368.529 169.509C368.969 169.246 369.493 169.115 370.1 169.115C370.623 169.115 371.081 169.21 371.475 169.4C371.868 169.59 372.179 169.857 372.408 170.201C372.637 170.545 372.764 170.948 372.787 171.412H371.217C371.173 171.112 371.055 170.871 370.865 170.689C370.678 170.504 370.432 170.412 370.127 170.412C369.869 170.412 369.644 170.482 369.451 170.623C369.261 170.761 369.113 170.963 369.006 171.228C368.899 171.494 368.846 171.815 368.846 172.193C368.846 172.576 368.898 172.901 369.002 173.17C369.109 173.438 369.258 173.642 369.451 173.783C369.644 173.924 369.869 173.994 370.127 173.994C370.317 173.994 370.488 173.955 370.639 173.877C370.792 173.799 370.919 173.685 371.018 173.537C371.119 173.386 371.186 173.205 371.217 172.994H372.787C372.761 173.452 372.636 173.856 372.412 174.205C372.191 174.551 371.885 174.822 371.494 175.017C371.104 175.213 370.641 175.31 370.107 175.31ZM375.517 167.193V175.193H373.853V167.193H375.517ZM376.85 175.193V169.193H378.514V175.193H376.85ZM377.686 168.42C377.438 168.42 377.226 168.338 377.049 168.174C376.874 168.007 376.787 167.808 376.787 167.576C376.787 167.347 376.874 167.15 377.049 166.986C377.226 166.819 377.438 166.736 377.686 166.736C377.933 166.736 378.144 166.819 378.318 166.986C378.495 167.15 378.584 167.347 378.584 167.576C378.584 167.808 378.495 168.007 378.318 168.174C378.144 168.338 377.933 168.42 377.686 168.42ZM381.511 171.724V175.193H379.847V169.193H381.433V170.252H381.503C381.636 169.903 381.858 169.627 382.171 169.424C382.483 169.218 382.862 169.115 383.308 169.115C383.724 169.115 384.088 169.206 384.397 169.388C384.707 169.571 384.948 169.831 385.12 170.17C385.292 170.506 385.378 170.907 385.378 171.373V175.193H383.714V171.67C383.716 171.302 383.623 171.016 383.433 170.81C383.243 170.602 382.981 170.498 382.647 170.498C382.424 170.498 382.226 170.546 382.054 170.642C381.884 170.739 381.752 170.879 381.655 171.064C381.562 171.246 381.513 171.466 381.511 171.724Z" fill="white"/>
<path d="M49.408 135.884H51.028C51.06 136.156 51.184 136.404 51.4 136.628C51.624 136.844 51.916 137.016 52.276 137.144C52.636 137.264 53.04 137.324 53.488 137.324C53.896 137.324 54.232 137.28 54.496 137.192C54.76 137.104 54.956 136.98 55.084 136.82C55.212 136.66 55.276 136.468 55.276 136.244C55.276 136.028 55.196 135.864 55.036 135.752C54.876 135.632 54.624 135.536 54.28 135.464C53.936 135.384 53.484 135.304 52.924 135.224C52.484 135.16 52.068 135.072 51.676 134.96C51.284 134.84 50.936 134.688 50.632 134.504C50.336 134.32 50.1 134.096 49.924 133.832C49.756 133.56 49.672 133.24 49.672 132.872C49.672 132.416 49.8 132.016 50.056 131.672C50.32 131.328 50.708 131.06 51.22 130.868C51.732 130.676 52.36 130.58 53.104 130.58C54.224 130.58 55.084 130.82 55.684 131.3C56.292 131.772 56.588 132.424 56.572 133.256H55.012C54.98 132.784 54.78 132.444 54.412 132.236C54.052 132.028 53.596 131.924 53.044 131.924C52.532 131.924 52.108 132 51.772 132.152C51.444 132.304 51.28 132.564 51.28 132.932C51.28 133.076 51.32 133.204 51.4 133.316C51.48 133.42 51.616 133.512 51.808 133.592C52 133.672 52.26 133.748 52.588 133.82C52.916 133.892 53.324 133.964 53.812 134.036C54.268 134.1 54.68 134.188 55.048 134.3C55.424 134.404 55.744 134.544 56.008 134.72C56.28 134.888 56.488 135.104 56.632 135.368C56.776 135.632 56.848 135.956 56.848 136.34C56.848 136.812 56.724 137.224 56.476 137.576C56.236 137.92 55.86 138.188 55.348 138.38C54.844 138.572 54.188 138.668 53.38 138.668C52.804 138.668 52.296 138.608 51.856 138.488C51.416 138.36 51.036 138.192 50.716 137.984C50.396 137.776 50.136 137.548 49.936 137.3C49.736 137.052 49.592 136.804 49.504 136.556C49.424 136.308 49.392 136.084 49.408 135.884ZM57.632 132.536H62.264V133.748H57.632V132.536ZM59.168 130.904H60.728V138.5H59.168V130.904ZM66.0771 138.632C65.4851 138.632 64.9451 138.504 64.4571 138.248C63.9771 137.984 63.5931 137.62 63.3051 137.156C63.0251 136.684 62.8851 136.14 62.8851 135.524C62.8851 134.892 63.0291 134.344 63.3171 133.88C63.6051 133.416 63.9931 133.056 64.4811 132.8C64.9771 132.536 65.5371 132.404 66.1611 132.404C66.8491 132.404 67.4011 132.544 67.8171 132.824C68.2411 133.096 68.5491 133.468 68.7411 133.94C68.9331 134.412 69.0291 134.94 69.0291 135.524C69.0291 135.876 68.9731 136.236 68.8611 136.604C68.7491 136.964 68.5771 137.3 68.3451 137.612C68.1131 137.916 67.8091 138.164 67.4331 138.356C67.0571 138.54 66.6051 138.632 66.0771 138.632ZM66.5811 137.432C67.0531 137.432 67.4611 137.352 67.8051 137.192C68.1491 137.032 68.4131 136.808 68.5971 136.52C68.7811 136.232 68.8731 135.9 68.8731 135.524C68.8731 135.116 68.7771 134.772 68.5851 134.492C68.4011 134.204 68.1371 133.988 67.7931 133.844C67.4571 133.692 67.0531 133.616 66.5811 133.616C65.9171 133.616 65.4011 133.792 65.0331 134.144C64.6651 134.488 64.4811 134.948 64.4811 135.524C64.4811 135.908 64.5691 136.244 64.7451 136.532C64.9211 136.812 65.1651 137.032 65.4771 137.192C65.7971 137.352 66.1651 137.432 66.5811 137.432ZM68.8731 132.536H70.4331V138.5H68.9811C68.9811 138.5 68.9691 138.424 68.9451 138.272C68.9291 138.112 68.9131 137.912 68.8971 137.672C68.8811 137.432 68.8731 137.196 68.8731 136.964V132.536ZM71.425 132.536H76.057V133.748H71.425V132.536ZM72.961 130.904H74.521V138.5H72.961V130.904ZM83.9481 138.5H82.3881V132.536H83.9481V138.5ZM82.4721 135.632L82.4841 136.04C82.4681 136.152 82.4281 136.316 82.3641 136.532C82.3001 136.74 82.2001 136.964 82.0641 137.204C81.9361 137.444 81.7681 137.676 81.5601 137.9C81.3521 138.116 81.0961 138.296 80.7921 138.44C80.4881 138.576 80.1281 138.644 79.7121 138.644C79.3841 138.644 79.0601 138.604 78.7401 138.524C78.4281 138.444 78.1441 138.312 77.8881 138.128C77.6321 137.936 77.4281 137.68 77.2761 137.36C77.1241 137.04 77.0481 136.636 77.0481 136.148V132.536H78.6081V135.884C78.6081 136.268 78.6681 136.572 78.7881 136.796C78.9161 137.012 79.1001 137.164 79.3401 137.252C79.5801 137.34 79.8641 137.384 80.1921 137.384C80.6241 137.384 80.9961 137.292 81.3081 137.108C81.6201 136.916 81.8721 136.684 82.0641 136.412C82.2641 136.14 82.4001 135.88 82.4721 135.632ZM84.9484 132.536H89.5804V133.748H84.9484V132.536ZM86.4844 130.904H88.0444V138.5H86.4844V130.904ZM90.3316 136.52H91.7716C91.8596 136.792 92.0396 137.016 92.3116 137.192C92.5916 137.36 92.9556 137.444 93.4036 137.444C93.7076 137.444 93.9436 137.416 94.1116 137.36C94.2796 137.304 94.3956 137.224 94.4596 137.12C94.5236 137.008 94.5556 136.884 94.5556 136.748C94.5556 136.58 94.5036 136.452 94.3996 136.364C94.2956 136.268 94.1356 136.192 93.9196 136.136C93.7036 136.08 93.4276 136.028 93.0916 135.98C92.7556 135.924 92.4316 135.856 92.1196 135.776C91.8076 135.696 91.5316 135.592 91.2916 135.464C91.0516 135.328 90.8596 135.16 90.7156 134.96C90.5796 134.752 90.5116 134.5 90.5116 134.204C90.5116 133.916 90.5796 133.66 90.7156 133.436C90.8596 133.212 91.0556 133.024 91.3036 132.872C91.5596 132.72 91.8556 132.604 92.1916 132.524C92.5356 132.444 92.9036 132.404 93.2956 132.404C93.8876 132.404 94.3796 132.492 94.7716 132.668C95.1636 132.836 95.4556 133.076 95.6476 133.388C95.8476 133.692 95.9476 134.044 95.9476 134.444H94.5676C94.5036 134.148 94.3756 133.936 94.1836 133.808C93.9916 133.672 93.6956 133.604 93.2956 133.604C92.9036 133.604 92.6076 133.664 92.4076 133.784C92.2076 133.904 92.1076 134.068 92.1076 134.276C92.1076 134.444 92.1676 134.576 92.2876 134.672C92.4156 134.76 92.5996 134.832 92.8396 134.888C93.0876 134.944 93.3956 135.004 93.7636 135.068C94.0756 135.132 94.3716 135.204 94.6516 135.284C94.9396 135.364 95.1956 135.468 95.4196 135.596C95.6436 135.716 95.8196 135.88 95.9476 136.088C96.0836 136.288 96.1516 136.544 96.1516 136.856C96.1516 137.24 96.0396 137.564 95.8156 137.828C95.5996 138.092 95.2876 138.296 94.8796 138.44C94.4716 138.576 93.9836 138.644 93.4156 138.644C92.9116 138.644 92.4756 138.592 92.1076 138.488C91.7476 138.376 91.4476 138.236 91.2076 138.068C90.9676 137.892 90.7796 137.708 90.6436 137.516C90.5156 137.316 90.4276 137.128 90.3796 136.952C90.3316 136.776 90.3156 136.632 90.3316 136.52Z" fill="#0C0C0E"/>
<path d="M49.408 135.884H51.028C51.06 136.156 51.184 136.404 51.4 136.628C51.624 136.844 51.916 137.016 52.276 137.144C52.636 137.264 53.04 137.324 53.488 137.324C53.896 137.324 54.232 137.28 54.496 137.192C54.76 137.104 54.956 136.98 55.084 136.82C55.212 136.66 55.276 136.468 55.276 136.244C55.276 136.028 55.196 135.864 55.036 135.752C54.876 135.632 54.624 135.536 54.28 135.464C53.936 135.384 53.484 135.304 52.924 135.224C52.484 135.16 52.068 135.072 51.676 134.96C51.284 134.84 50.936 134.688 50.632 134.504C50.336 134.32 50.1 134.096 49.924 133.832C49.756 133.56 49.672 133.24 49.672 132.872C49.672 132.416 49.8 132.016 50.056 131.672C50.32 131.328 50.708 131.06 51.22 130.868C51.732 130.676 52.36 130.58 53.104 130.58C54.224 130.58 55.084 130.82 55.684 131.3C56.292 131.772 56.588 132.424 56.572 133.256H55.012C54.98 132.784 54.78 132.444 54.412 132.236C54.052 132.028 53.596 131.924 53.044 131.924C52.532 131.924 52.108 132 51.772 132.152C51.444 132.304 51.28 132.564 51.28 132.932C51.28 133.076 51.32 133.204 51.4 133.316C51.48 133.42 51.616 133.512 51.808 133.592C52 133.672 52.26 133.748 52.588 133.82C52.916 133.892 53.324 133.964 53.812 134.036C54.268 134.1 54.68 134.188 55.048 134.3C55.424 134.404 55.744 134.544 56.008 134.72C56.28 134.888 56.488 135.104 56.632 135.368C56.776 135.632 56.848 135.956 56.848 136.34C56.848 136.812 56.724 137.224 56.476 137.576C56.236 137.92 55.86 138.188 55.348 138.38C54.844 138.572 54.188 138.668 53.38 138.668C52.804 138.668 52.296 138.608 51.856 138.488C51.416 138.36 51.036 138.192 50.716 137.984C50.396 137.776 50.136 137.548 49.936 137.3C49.736 137.052 49.592 136.804 49.504 136.556C49.424 136.308 49.392 136.084 49.408 135.884ZM57.632 132.536H62.264V133.748H57.632V132.536ZM59.168 130.904H60.728V138.5H59.168V130.904ZM66.0771 138.632C65.4851 138.632 64.9451 138.504 64.4571 138.248C63.9771 137.984 63.5931 137.62 63.3051 137.156C63.0251 136.684 62.8851 136.14 62.8851 135.524C62.8851 134.892 63.0291 134.344 63.3171 133.88C63.6051 133.416 63.9931 133.056 64.4811 132.8C64.9771 132.536 65.5371 132.404 66.1611 132.404C66.8491 132.404 67.4011 132.544 67.8171 132.824C68.2411 133.096 68.5491 133.468 68.7411 133.94C68.9331 134.412 69.0291 134.94 69.0291 135.524C69.0291 135.876 68.9731 136.236 68.8611 136.604C68.7491 136.964 68.5771 137.3 68.3451 137.612C68.1131 137.916 67.8091 138.164 67.4331 138.356C67.0571 138.54 66.6051 138.632 66.0771 138.632ZM66.5811 137.432C67.0531 137.432 67.4611 137.352 67.8051 137.192C68.1491 137.032 68.4131 136.808 68.5971 136.52C68.7811 136.232 68.8731 135.9 68.8731 135.524C68.8731 135.116 68.7771 134.772 68.5851 134.492C68.4011 134.204 68.1371 133.988 67.7931 133.844C67.4571 133.692 67.0531 133.616 66.5811 133.616C65.9171 133.616 65.4011 133.792 65.0331 134.144C64.6651 134.488 64.4811 134.948 64.4811 135.524C64.4811 135.908 64.5691 136.244 64.7451 136.532C64.9211 136.812 65.1651 137.032 65.4771 137.192C65.7971 137.352 66.1651 137.432 66.5811 137.432ZM68.8731 132.536H70.4331V138.5H68.9811C68.9811 138.5 68.9691 138.424 68.9451 138.272C68.9291 138.112 68.9131 137.912 68.8971 137.672C68.8811 137.432 68.8731 137.196 68.8731 136.964V132.536ZM71.425 132.536H76.057V133.748H71.425V132.536ZM72.961 130.904H74.521V138.5H72.961V130.904ZM83.9481 138.5H82.3881V132.536H83.9481V138.5ZM82.4721 135.632L82.4841 136.04C82.4681 136.152 82.4281 136.316 82.3641 136.532C82.3001 136.74 82.2001 136.964 82.0641 137.204C81.9361 137.444 81.7681 137.676 81.5601 137.9C81.3521 138.116 81.0961 138.296 80.7921 138.44C80.4881 138.576 80.1281 138.644 79.7121 138.644C79.3841 138.644 79.0601 138.604 78.7401 138.524C78.4281 138.444 78.1441 138.312 77.8881 138.128C77.6321 137.936 77.4281 137.68 77.2761 137.36C77.1241 137.04 77.0481 136.636 77.0481 136.148V132.536H78.6081V135.884C78.6081 136.268 78.6681 136.572 78.7881 136.796C78.9161 137.012 79.1001 137.164 79.3401 137.252C79.5801 137.34 79.8641 137.384 80.1921 137.384C80.6241 137.384 80.9961 137.292 81.3081 137.108C81.6201 136.916 81.8721 136.684 82.0641 136.412C82.2641 136.14 82.4001 135.88 82.4721 135.632ZM84.9484 132.536H89.5804V133.748H84.9484V132.536ZM86.4844 130.904H88.0444V138.5H86.4844V130.904ZM90.3316 136.52H91.7716C91.8596 136.792 92.0396 137.016 92.3116 137.192C92.5916 137.36 92.9556 137.444 93.4036 137.444C93.7076 137.444 93.9436 137.416 94.1116 137.36C94.2796 137.304 94.3956 137.224 94.4596 137.12C94.5236 137.008 94.5556 136.884 94.5556 136.748C94.5556 136.58 94.5036 136.452 94.3996 136.364C94.2956 136.268 94.1356 136.192 93.9196 136.136C93.7036 136.08 93.4276 136.028 93.0916 135.98C92.7556 135.924 92.4316 135.856 92.1196 135.776C91.8076 135.696 91.5316 135.592 91.2916 135.464C91.0516 135.328 90.8596 135.16 90.7156 134.96C90.5796 134.752 90.5116 134.5 90.5116 134.204C90.5116 133.916 90.5796 133.66 90.7156 133.436C90.8596 133.212 91.0556 133.024 91.3036 132.872C91.5596 132.72 91.8556 132.604 92.1916 132.524C92.5356 132.444 92.9036 132.404 93.2956 132.404C93.8876 132.404 94.3796 132.492 94.7716 132.668C95.1636 132.836 95.4556 133.076 95.6476 133.388C95.8476 133.692 95.9476 134.044 95.9476 134.444H94.5676C94.5036 134.148 94.3756 133.936 94.1836 133.808C93.9916 133.672 93.6956 133.604 93.2956 133.604C92.9036 133.604 92.6076 133.664 92.4076 133.784C92.2076 133.904 92.1076 134.068 92.1076 134.276C92.1076 134.444 92.1676 134.576 92.2876 134.672C92.4156 134.76 92.5996 134.832 92.8396 134.888C93.0876 134.944 93.3956 135.004 93.7636 135.068C94.0756 135.132 94.3716 135.204 94.6516 135.284C94.9396 135.364 95.1956 135.468 95.4196 135.596C95.6436 135.716 95.8196 135.88 95.9476 136.088C96.0836 136.288 96.1516 136.544 96.1516 136.856C96.1516 137.24 96.0396 137.564 95.8156 137.828C95.5996 138.092 95.2876 138.296 94.8796 138.44C94.4716 138.576 93.9836 138.644 93.4156 138.644C92.9116 138.644 92.4756 138.592 92.1076 138.488C91.7476 138.376 91.4476 138.236 91.2076 138.068C90.9676 137.892 90.7796 137.708 90.6436 137.516C90.5156 137.316 90.4276 137.128 90.3796 136.952C90.3316 136.776 90.3156 136.632 90.3316 136.52Z" fill="#0C0C0E"/>
<path d="M58.984 59.204C58.912 59.828 58.692 60.36 58.324 60.8C57.956 61.24 57.456 61.576 56.824 61.808C56.192 62.04 55.44 62.156 54.568 62.156C53.84 62.156 53.172 62.072 52.564 61.904C51.964 61.736 51.444 61.484 51.004 61.148C50.572 60.812 50.236 60.396 49.996 59.9C49.756 59.396 49.636 58.808 49.636 58.136C49.636 57.464 49.756 56.876 49.996 56.372C50.236 55.868 50.572 55.448 51.004 55.112C51.444 54.768 51.964 54.512 52.564 54.344C53.172 54.168 53.84 54.08 54.568 54.08C55.44 54.08 56.192 54.2 56.824 54.44C57.464 54.68 57.968 55.024 58.336 55.472C58.704 55.912 58.92 56.448 58.984 57.08H57.4C57.296 56.744 57.12 56.456 56.872 56.216C56.632 55.968 56.32 55.78 55.936 55.652C55.552 55.524 55.096 55.46 54.568 55.46C53.912 55.46 53.336 55.564 52.84 55.772C52.344 55.972 51.96 56.272 51.688 56.672C51.416 57.064 51.28 57.552 51.28 58.136C51.28 58.712 51.416 59.196 51.688 59.588C51.96 59.98 52.344 60.28 52.84 60.488C53.336 60.688 53.912 60.788 54.568 60.788C55.096 60.788 55.548 60.724 55.924 60.596C56.308 60.468 56.62 60.284 56.86 60.044C57.108 59.804 57.288 59.524 57.4 59.204H58.984ZM63.2412 62.132C62.6492 62.132 62.1092 62.004 61.6212 61.748C61.1412 61.484 60.7572 61.12 60.4692 60.656C60.1892 60.184 60.0492 59.64 60.0492 59.024C60.0492 58.392 60.1932 57.844 60.4812 57.38C60.7692 56.916 61.1572 56.556 61.6452 56.3C62.1412 56.036 62.7012 55.904 63.3252 55.904C64.0132 55.904 64.5652 56.044 64.9812 56.324C65.4052 56.596 65.7132 56.968 65.9052 57.44C66.0972 57.912 66.1932 58.44 66.1932 59.024C66.1932 59.376 66.1372 59.736 66.0252 60.104C65.9132 60.464 65.7412 60.8 65.5092 61.112C65.2772 61.416 64.9732 61.664 64.5972 61.856C64.2212 62.04 63.7692 62.132 63.2412 62.132ZM63.7452 60.932C64.2172 60.932 64.6252 60.852 64.9692 60.692C65.3132 60.532 65.5772 60.308 65.7612 60.02C65.9452 59.732 66.0372 59.4 66.0372 59.024C66.0372 58.616 65.9412 58.272 65.7492 57.992C65.5652 57.704 65.3012 57.488 64.9572 57.344C64.6212 57.192 64.2172 57.116 63.7452 57.116C63.0812 57.116 62.5652 57.292 62.1972 57.644C61.8292 57.988 61.6452 58.448 61.6452 59.024C61.6452 59.408 61.7332 59.744 61.9092 60.032C62.0852 60.312 62.3292 60.532 62.6412 60.692C62.9612 60.852 63.3292 60.932 63.7452 60.932ZM66.0372 56.036H67.5972V62H66.1452C66.1452 62 66.1332 61.924 66.1092 61.772C66.0932 61.612 66.0772 61.412 66.0612 61.172C66.0452 60.932 66.0372 60.696 66.0372 60.464V56.036ZM68.5891 56.036H73.2211V57.248H68.5891V56.036ZM70.1251 54.404H71.6851V62H70.1251V54.404ZM79.5662 60.02H81.0782C81.0142 60.428 80.8422 60.792 80.5622 61.112C80.2902 61.432 79.9182 61.684 79.4462 61.868C78.9742 62.052 78.3982 62.144 77.7182 62.144C76.9582 62.144 76.2862 62.024 75.7022 61.784C75.1182 61.536 74.6622 61.18 74.3342 60.716C74.0062 60.252 73.8422 59.692 73.8422 59.036C73.8422 58.38 74.0022 57.82 74.3222 57.356C74.6422 56.884 75.0862 56.524 75.6542 56.276C76.2302 56.028 76.9022 55.904 77.6702 55.904C78.4542 55.904 79.1062 56.028 79.6262 56.276C80.1462 56.524 80.5302 56.9 80.7782 57.404C81.0342 57.9 81.1422 58.536 81.1022 59.312H75.4142C75.4542 59.616 75.5662 59.892 75.7502 60.14C75.9422 60.388 76.1982 60.584 76.5182 60.728C76.8462 60.872 77.2342 60.944 77.6822 60.944C78.1782 60.944 78.5902 60.86 78.9182 60.692C79.2542 60.516 79.4702 60.292 79.5662 60.02ZM77.5982 57.092C77.0222 57.092 76.5542 57.22 76.1942 57.476C75.8342 57.724 75.6022 58.032 75.4982 58.4H79.5542C79.5142 58 79.3222 57.684 78.9782 57.452C78.6422 57.212 78.1822 57.092 77.5982 57.092ZM76.7942 54.788L78.4262 52.892H80.4902L78.2822 54.788H76.7942ZM85.239 61.088C84.591 61.088 84.019 60.992 83.523 60.8C83.035 60.6 82.655 60.308 82.383 59.924C82.111 59.54 81.975 59.076 81.975 58.532C81.975 57.996 82.107 57.532 82.371 57.14C82.635 56.748 83.011 56.444 83.499 56.228C83.995 56.012 84.575 55.904 85.239 55.904C85.423 55.904 85.599 55.916 85.767 55.94C85.943 55.964 86.115 55.996 86.283 56.036L89.295 56.048V57.224C88.887 57.232 88.471 57.184 88.047 57.08C87.631 56.968 87.263 56.848 86.943 56.72L86.907 56.636C87.179 56.764 87.435 56.924 87.675 57.116C87.915 57.3 88.107 57.516 88.251 57.764C88.403 58.004 88.479 58.284 88.479 58.604C88.479 59.124 88.347 59.572 88.083 59.948C87.819 60.316 87.443 60.6 86.955 60.8C86.475 60.992 85.903 61.088 85.239 61.088ZM87.243 64.46V64.172C87.243 63.804 87.123 63.548 86.883 63.404C86.651 63.26 86.331 63.188 85.923 63.188H84.063C83.703 63.188 83.399 63.16 83.151 63.104C82.911 63.048 82.719 62.968 82.575 62.864C82.431 62.76 82.327 62.636 82.263 62.492C82.199 62.356 82.167 62.208 82.167 62.048C82.167 61.728 82.271 61.488 82.479 61.328C82.687 61.16 82.967 61.048 83.319 60.992C83.671 60.936 84.059 60.924 84.483 60.956L85.239 61.088C84.735 61.104 84.359 61.148 84.111 61.22C83.871 61.284 83.751 61.416 83.751 61.616C83.751 61.736 83.799 61.832 83.895 61.904C83.991 61.968 84.127 62 84.303 62H86.259C86.795 62 87.251 62.056 87.627 62.168C88.011 62.288 88.303 62.484 88.503 62.756C88.703 63.036 88.803 63.416 88.803 63.896V64.46H87.243ZM85.239 59.96C85.583 59.96 85.883 59.904 86.139 59.792C86.403 59.68 86.607 59.52 86.751 59.312C86.895 59.096 86.967 58.84 86.967 58.544C86.967 58.24 86.895 57.98 86.751 57.764C86.607 57.548 86.407 57.384 86.151 57.272C85.895 57.152 85.591 57.092 85.239 57.092C84.895 57.092 84.591 57.152 84.327 57.272C84.063 57.384 83.859 57.548 83.715 57.764C83.571 57.98 83.499 58.24 83.499 58.544C83.499 58.84 83.571 59.096 83.715 59.312C83.859 59.52 84.059 59.68 84.315 59.792C84.579 59.904 84.887 59.96 85.239 59.96ZM93.7243 62.144C92.9723 62.144 92.3083 62.024 91.7323 61.784C91.1643 61.544 90.7203 61.196 90.4003 60.74C90.0803 60.276 89.9203 59.708 89.9203 59.036C89.9203 58.364 90.0803 57.796 90.4003 57.332C90.7203 56.86 91.1643 56.504 91.7323 56.264C92.3083 56.024 92.9723 55.904 93.7243 55.904C94.4763 55.904 95.1323 56.024 95.6923 56.264C96.2603 56.504 96.7043 56.86 97.0243 57.332C97.3443 57.796 97.5043 58.364 97.5043 59.036C97.5043 59.708 97.3443 60.276 97.0243 60.74C96.7043 61.196 96.2603 61.544 95.6923 61.784C95.1323 62.024 94.4763 62.144 93.7243 62.144ZM93.7243 60.944C94.1403 60.944 94.5123 60.872 94.8403 60.728C95.1763 60.576 95.4403 60.36 95.6323 60.08C95.8243 59.792 95.9203 59.444 95.9203 59.036C95.9203 58.628 95.8243 58.28 95.6323 57.992C95.4403 57.696 95.1803 57.472 94.8523 57.32C94.5243 57.168 94.1483 57.092 93.7243 57.092C93.3083 57.092 92.9323 57.168 92.5963 57.32C92.2603 57.472 91.9923 57.692 91.7923 57.98C91.6003 58.268 91.5043 58.62 91.5043 59.036C91.5043 59.444 91.6003 59.792 91.7923 60.08C91.9843 60.36 92.2483 60.576 92.5843 60.728C92.9203 60.872 93.3003 60.944 93.7243 60.944ZM98.6575 56.036H100.218V62H98.6575V56.036ZM102.51 57.32C102.062 57.32 101.674 57.408 101.346 57.584C101.018 57.752 100.754 57.96 100.554 58.208C100.354 58.456 100.214 58.696 100.134 58.928L100.122 58.268C100.13 58.172 100.162 58.032 100.218 57.848C100.274 57.656 100.358 57.452 100.47 57.236C100.582 57.012 100.73 56.8 100.914 56.6C101.098 56.392 101.322 56.224 101.586 56.096C101.85 55.968 102.158 55.904 102.51 55.904V57.32ZM105.262 53.42V54.788H103.45V53.42H105.262ZM103.57 56.036H105.13V62H103.57V56.036ZM112.121 60.02H113.633C113.569 60.428 113.397 60.792 113.117 61.112C112.845 61.432 112.473 61.684 112.001 61.868C111.529 62.052 110.953 62.144 110.273 62.144C109.513 62.144 108.841 62.024 108.257 61.784C107.673 61.536 107.217 61.18 106.889 60.716C106.561 60.252 106.397 59.692 106.397 59.036C106.397 58.38 106.557 57.82 106.877 57.356C107.197 56.884 107.641 56.524 108.209 56.276C108.785 56.028 109.457 55.904 110.225 55.904C111.009 55.904 111.661 56.028 112.181 56.276C112.701 56.524 113.085 56.9 113.333 57.404C113.589 57.9 113.697 58.536 113.657 59.312H107.969C108.009 59.616 108.121 59.892 108.305 60.14C108.497 60.388 108.753 60.584 109.073 60.728C109.401 60.872 109.789 60.944 110.237 60.944C110.733 60.944 111.145 60.86 111.473 60.692C111.809 60.516 112.025 60.292 112.121 60.02ZM110.153 57.092C109.577 57.092 109.109 57.22 108.749 57.476C108.389 57.724 108.157 58.032 108.053 58.4H112.109C112.069 58 111.877 57.684 111.533 57.452C111.197 57.212 110.737 57.092 110.153 57.092ZM114.578 60.02H116.018C116.106 60.292 116.286 60.516 116.558 60.692C116.838 60.86 117.202 60.944 117.65 60.944C117.954 60.944 118.19 60.916 118.358 60.86C118.526 60.804 118.642 60.724 118.706 60.62C118.77 60.508 118.802 60.384 118.802 60.248C118.802 60.08 118.75 59.952 118.646 59.864C118.542 59.768 118.382 59.692 118.166 59.636C117.95 59.58 117.674 59.528 117.338 59.48C117.002 59.424 116.678 59.356 116.366 59.276C116.054 59.196 115.778 59.092 115.538 58.964C115.298 58.828 115.106 58.66 114.962 58.46C114.826 58.252 114.758 58 114.758 57.704C114.758 57.416 114.826 57.16 114.962 56.936C115.106 56.712 115.302 56.524 115.55 56.372C115.806 56.22 116.102 56.104 116.438 56.024C116.782 55.944 117.15 55.904 117.542 55.904C118.134 55.904 118.626 55.992 119.018 56.168C119.41 56.336 119.702 56.576 119.894 56.888C120.094 57.192 120.194 57.544 120.194 57.944H118.814C118.75 57.648 118.622 57.436 118.43 57.308C118.238 57.172 117.942 57.104 117.542 57.104C117.15 57.104 116.854 57.164 116.654 57.284C116.454 57.404 116.354 57.568 116.354 57.776C116.354 57.944 116.414 58.076 116.534 58.172C116.662 58.26 116.846 58.332 117.086 58.388C117.334 58.444 117.642 58.504 118.01 58.568C118.322 58.632 118.618 58.704 118.898 58.784C119.186 58.864 119.442 58.968 119.666 59.096C119.89 59.216 120.066 59.38 120.194 59.588C120.33 59.788 120.398 60.044 120.398 60.356C120.398 60.74 120.286 61.064 120.062 61.328C119.846 61.592 119.534 61.796 119.126 61.94C118.718 62.076 118.23 62.144 117.662 62.144C117.158 62.144 116.722 62.092 116.354 61.988C115.994 61.876 115.694 61.736 115.454 61.568C115.214 61.392 115.026 61.208 114.89 61.016C114.762 60.816 114.674 60.628 114.626 60.452C114.578 60.276 114.562 60.132 114.578 60.02Z" fill="#0C0C0E"/>
<rect x="49" y="76.25" width="64" height="36" rx="18" fill="#3D28FF"/>
<path d="M63.4616 91.4435V89.7955H71.2266V91.4435H68.332V99.25H66.3562V91.4435H63.4616ZM74.6439 99.3885C73.9268 99.3885 73.3067 99.2362 72.7835 98.9315C72.2633 98.6237 71.8617 98.1959 71.5786 97.6481C71.2954 97.0972 71.1539 96.4586 71.1539 95.7322C71.1539 94.9998 71.2954 94.3596 71.5786 93.8118C71.8617 93.2609 72.2633 92.8331 72.7835 92.5284C73.3067 92.2206 73.9268 92.0668 74.6439 92.0668C75.361 92.0668 75.9796 92.2206 76.4997 92.5284C77.0229 92.8331 77.4261 93.2609 77.7093 93.8118C77.9924 94.3596 78.134 94.9998 78.134 95.7322C78.134 96.4586 77.9924 97.0972 77.7093 97.6481C77.4261 98.1959 77.0229 98.6237 76.4997 98.9315C75.9796 99.2362 75.361 99.3885 74.6439 99.3885ZM74.6531 97.8651C74.9794 97.8651 75.2517 97.7727 75.4703 97.5881C75.6888 97.4003 75.8534 97.1449 75.9642 96.8217C76.0781 96.4986 76.135 96.1308 76.135 95.7184C76.135 95.306 76.0781 94.9382 75.9642 94.6151C75.8534 94.2919 75.6888 94.0365 75.4703 93.8487C75.2517 93.661 74.9794 93.5671 74.6531 93.5671C74.3238 93.5671 74.0468 93.661 73.8222 93.8487C73.6006 94.0365 73.4329 94.2919 73.319 94.6151C73.2082 94.9382 73.1528 95.306 73.1528 95.7184C73.1528 96.1308 73.2082 96.4986 73.319 96.8217C73.4329 97.1449 73.6006 97.4003 73.8222 97.5881C74.0468 97.7727 74.3238 97.8651 74.6531 97.8651ZM83.96 96.2308V92.1591H85.9266V99.25H84.0384V97.962H83.9646C83.8045 98.3775 83.5383 98.7114 83.1659 98.9638C82.7966 99.2161 82.3457 99.3423 81.8133 99.3423C81.3393 99.3423 80.9223 99.2346 80.5622 99.0192C80.2021 98.8037 79.9205 98.4975 79.7174 98.1005C79.5174 97.7035 79.4158 97.228 79.4127 96.674V92.1591H81.3794V96.3232C81.3824 96.7417 81.4948 97.0726 81.7164 97.3157C81.9379 97.5588 82.2349 97.6804 82.6073 97.6804C82.8443 97.6804 83.0659 97.6265 83.2721 97.5188C83.4783 97.408 83.6445 97.2449 83.7707 97.0295C83.8999 96.814 83.963 96.5478 83.96 96.2308ZM93.3995 94.1811L91.5991 94.2919C91.5683 94.138 91.5021 93.9995 91.4006 93.8764C91.299 93.7502 91.1651 93.6502 90.9989 93.5763C90.8358 93.4994 90.6404 93.4609 90.4126 93.4609C90.108 93.4609 89.851 93.5256 89.6417 93.6548C89.4324 93.781 89.3278 93.9503 89.3278 94.1626C89.3278 94.3319 89.3955 94.475 89.5309 94.592C89.6663 94.7089 89.8987 94.8028 90.228 94.8736L91.5114 95.1321C92.2008 95.2737 92.7147 95.5014 93.0533 95.8153C93.3918 96.1293 93.5611 96.5417 93.5611 97.0526C93.5611 97.5173 93.4241 97.9251 93.1502 98.2759C92.8794 98.6268 92.507 98.9007 92.033 99.0977C91.5621 99.2915 91.0189 99.3885 90.4034 99.3885C89.4647 99.3885 88.7169 99.1931 88.1598 98.8022C87.6058 98.4083 87.2811 97.8728 87.1857 97.1957L89.12 97.0941C89.1785 97.3803 89.3201 97.5988 89.5447 97.7496C89.7694 97.8974 90.0572 97.9712 90.408 97.9712C90.7527 97.9712 91.0297 97.9051 91.239 97.7727C91.4513 97.6373 91.5591 97.4634 91.5621 97.2511C91.5591 97.0726 91.4837 96.9264 91.3359 96.8125C91.1882 96.6955 90.9605 96.6063 90.6527 96.5447L89.4247 96.3001C88.7322 96.1616 88.2167 95.9215 87.8782 95.5799C87.5427 95.2383 87.375 94.8028 87.375 94.2734C87.375 93.8179 87.4981 93.4255 87.7443 93.0962C87.9936 92.7669 88.3429 92.513 88.7923 92.3345C89.2447 92.156 89.774 92.0668 90.3803 92.0668C91.2759 92.0668 91.9807 92.256 92.4947 92.6346C93.0117 93.0131 93.3133 93.5286 93.3995 94.1811Z" fill="white"/>
<rect x="121.75" y="77" width="62.5" height="34.5" rx="17.25" fill="white"/>
<rect x="121.75" y="77" width="62.5" height="34.5" rx="17.25" stroke="#E4E4EC" stroke-width="1.5"/>
<path d="M135.822 89.7955H138.287L140.891 96.1477H141.001L143.605 89.7955H146.07V99.25H144.131V93.0962H144.053L141.606 99.2038H140.286L137.839 93.0732H137.761V99.25H135.822V89.7955ZM150.884 99.3885C150.167 99.3885 149.547 99.2362 149.024 98.9315C148.504 98.6237 148.102 98.1959 147.819 97.6481C147.536 97.0972 147.394 96.4586 147.394 95.7322C147.394 94.9998 147.536 94.3596 147.819 93.8118C148.102 93.2609 148.504 92.8331 149.024 92.5284C149.547 92.2206 150.167 92.0668 150.884 92.0668C151.601 92.0668 152.22 92.2206 152.74 92.5284C153.263 92.8331 153.666 93.2609 153.949 93.8118C154.233 94.3596 154.374 94.9998 154.374 95.7322C154.374 96.4586 154.233 97.0972 153.949 97.6481C153.666 98.1959 153.263 98.6237 152.74 98.9315C152.22 99.2362 151.601 99.3885 150.884 99.3885ZM150.893 97.8651C151.22 97.8651 151.492 97.7727 151.71 97.5881C151.929 97.4003 152.094 97.1449 152.204 96.8217C152.318 96.4986 152.375 96.1308 152.375 95.7184C152.375 95.306 152.318 94.9382 152.204 94.6151C152.094 94.2919 151.929 94.0365 151.71 93.8487C151.492 93.661 151.22 93.5671 150.893 93.5671C150.564 93.5671 150.287 93.661 150.062 93.8487C149.841 94.0365 149.673 94.2919 149.559 94.6151C149.448 94.9382 149.393 95.306 149.393 95.7184C149.393 96.1308 149.448 96.4986 149.559 96.8217C149.673 97.1449 149.841 97.4003 150.062 97.5881C150.287 97.7727 150.564 97.8651 150.893 97.8651ZM158.266 99.3654C157.727 99.3654 157.239 99.2269 156.802 98.9499C156.369 98.6699 156.024 98.259 155.768 97.7173C155.516 97.1726 155.39 96.5047 155.39 95.7138C155.39 94.9013 155.521 94.2257 155.782 93.6871C156.044 93.1455 156.392 92.7408 156.826 92.473C157.263 92.2022 157.741 92.0668 158.261 92.0668C158.658 92.0668 158.989 92.1345 159.254 92.2699C159.522 92.4022 159.737 92.5684 159.9 92.7685C160.066 92.9654 160.193 93.1593 160.279 93.3501H160.339V89.7955H162.301V99.25H160.362V98.1143H160.279C160.186 98.3113 160.056 98.5067 159.886 98.7006C159.72 98.8915 159.503 99.05 159.235 99.1761C158.971 99.3023 158.648 99.3654 158.266 99.3654ZM158.889 97.8004C159.206 97.8004 159.474 97.7143 159.692 97.5419C159.914 97.3665 160.083 97.1218 160.2 96.8079C160.32 96.494 160.38 96.1262 160.38 95.7045C160.38 95.2829 160.322 94.9167 160.205 94.6058C160.088 94.295 159.919 94.0549 159.697 93.8857C159.475 93.7164 159.206 93.6317 158.889 93.6317C158.566 93.6317 158.294 93.7195 158.072 93.8949C157.85 94.0703 157.683 94.3134 157.569 94.6243C157.455 94.9351 157.398 95.2952 157.398 95.7045C157.398 96.117 157.455 96.4817 157.569 96.7987C157.686 97.1126 157.853 97.3588 158.072 97.5373C158.294 97.7127 158.566 97.8004 158.889 97.8004ZM167.149 99.3885C166.42 99.3885 165.792 99.2408 165.266 98.9453C164.742 98.6468 164.339 98.2251 164.056 97.6804C163.773 97.1326 163.631 96.4847 163.631 95.7369C163.631 95.0075 163.773 94.3673 164.056 93.8164C164.339 93.2655 164.738 92.8362 165.252 92.5284C165.769 92.2206 166.375 92.0668 167.071 92.0668C167.538 92.0668 167.974 92.1422 168.377 92.293C168.783 92.4407 169.137 92.6638 169.439 92.9624C169.744 93.2609 169.981 93.6364 170.15 94.0888C170.319 94.5381 170.404 95.0644 170.404 95.6676V96.2077H164.416V94.989H168.553C168.553 94.7058 168.491 94.455 168.368 94.2365C168.245 94.018 168.074 93.8472 167.855 93.7241C167.64 93.5979 167.389 93.5348 167.103 93.5348C166.804 93.5348 166.54 93.604 166.309 93.7425C166.081 93.878 165.903 94.0611 165.773 94.2919C165.644 94.5196 165.578 94.7736 165.575 95.0536V96.2124C165.575 96.5632 165.64 96.8664 165.769 97.1218C165.901 97.3772 166.087 97.5742 166.327 97.7127C166.567 97.8512 166.852 97.9205 167.181 97.9205C167.4 97.9205 167.6 97.8897 167.782 97.8281C167.963 97.7666 168.119 97.6742 168.248 97.5511C168.377 97.428 168.476 97.2772 168.543 97.0987L170.362 97.2188C170.27 97.6558 170.081 98.0374 169.794 98.3636C169.511 98.6868 169.145 98.9392 168.696 99.1207C168.249 99.2992 167.734 99.3885 167.149 99.3885Z" fill="#0C0C0F"/>
<rect x="193.75" y="77" width="62.5" height="34.5" rx="17.25" fill="white"/>
<rect x="193.75" y="77" width="62.5" height="34.5" rx="17.25" stroke="#E4E4EC" stroke-width="1.5"/>
<path d="M207.822 99.25V89.7955H214.082V91.4435H209.821V93.6964H213.666V95.3445H209.821V99.25H207.822ZM218.073 99.3885C217.356 99.3885 216.735 99.2362 216.212 98.9315C215.692 98.6237 215.29 98.1959 215.007 97.6481C214.724 97.0972 214.583 96.4586 214.583 95.7322C214.583 94.9998 214.724 94.3596 215.007 93.8118C215.29 93.2609 215.692 92.8331 216.212 92.5284C216.735 92.2206 217.356 92.0668 218.073 92.0668C218.79 92.0668 219.408 92.2206 219.928 92.5284C220.452 92.8331 220.855 93.2609 221.138 93.8118C221.421 94.3596 221.563 94.9998 221.563 95.7322C221.563 96.4586 221.421 97.0972 221.138 97.6481C220.855 98.1959 220.452 98.6237 219.928 98.9315C219.408 99.2362 218.79 99.3885 218.073 99.3885ZM218.082 97.8651C218.408 97.8651 218.68 97.7727 218.899 97.5881C219.117 97.4003 219.282 97.1449 219.393 96.8217C219.507 96.4986 219.564 96.1308 219.564 95.7184C219.564 95.306 219.507 94.9382 219.393 94.6151C219.282 94.2919 219.117 94.0365 218.899 93.8487C218.68 93.661 218.408 93.5671 218.082 93.5671C217.753 93.5671 217.476 93.661 217.251 93.8487C217.029 94.0365 216.862 94.2919 216.748 94.6151C216.637 94.9382 216.581 95.306 216.581 95.7184C216.581 96.1308 216.637 96.4986 216.748 96.8217C216.862 97.1449 217.029 97.4003 217.251 97.5881C217.476 97.7727 217.753 97.8651 218.082 97.8651ZM226.045 99.3885C225.328 99.3885 224.708 99.2362 224.185 98.9315C223.665 98.6237 223.263 98.1959 222.98 97.6481C222.697 97.0972 222.555 96.4586 222.555 95.7322C222.555 94.9998 222.697 94.3596 222.98 93.8118C223.263 93.2609 223.665 92.8331 224.185 92.5284C224.708 92.2206 225.328 92.0668 226.045 92.0668C226.762 92.0668 227.381 92.2206 227.901 92.5284C228.424 92.8331 228.827 93.2609 229.111 93.8118C229.394 94.3596 229.535 94.9998 229.535 95.7322C229.535 96.4586 229.394 97.0972 229.111 97.6481C228.827 98.1959 228.424 98.6237 227.901 98.9315C227.381 99.2362 226.762 99.3885 226.045 99.3885ZM226.055 97.8651C226.381 97.8651 226.653 97.7727 226.872 97.5881C227.09 97.4003 227.255 97.1449 227.366 96.8217C227.479 96.4986 227.536 96.1308 227.536 95.7184C227.536 95.306 227.479 94.9382 227.366 94.6151C227.255 94.2919 227.09 94.0365 226.872 93.8487C226.653 93.661 226.381 93.5671 226.055 93.5671C225.725 93.5671 225.448 93.661 225.224 93.8487C225.002 94.0365 224.834 94.2919 224.72 94.6151C224.61 94.9382 224.554 95.306 224.554 95.7184C224.554 96.1308 224.61 96.4986 224.72 96.8217C224.834 97.1449 225.002 97.4003 225.224 97.5881C225.448 97.7727 225.725 97.8651 226.055 97.8651ZM233.427 99.3654C232.888 99.3654 232.401 99.2269 231.964 98.9499C231.53 98.6699 231.185 98.259 230.93 97.7173C230.677 97.1726 230.551 96.5047 230.551 95.7138C230.551 94.9013 230.682 94.2257 230.943 93.6871C231.205 93.1455 231.553 92.7408 231.987 92.473C232.424 92.2022 232.902 92.0668 233.422 92.0668C233.819 92.0668 234.15 92.1345 234.415 92.2699C234.683 92.4022 234.898 92.5684 235.061 92.7685C235.227 92.9654 235.354 93.1593 235.44 93.3501H235.5V89.7955H237.462V99.25H235.523V98.1143H235.44C235.347 98.3113 235.217 98.5067 235.047 98.7006C234.881 98.8915 234.664 99.05 234.396 99.1761C234.132 99.3023 233.809 99.3654 233.427 99.3654ZM234.05 97.8004C234.367 97.8004 234.635 97.7143 234.854 97.5419C235.075 97.3665 235.244 97.1218 235.361 96.8079C235.481 96.494 235.541 96.1262 235.541 95.7045C235.541 95.2829 235.483 94.9167 235.366 94.6058C235.249 94.295 235.08 94.0549 234.858 93.8857C234.637 93.7164 234.367 93.6317 234.05 93.6317C233.727 93.6317 233.455 93.7195 233.233 93.8949C233.012 94.0703 232.844 94.3134 232.73 94.6243C232.616 94.9351 232.559 95.2952 232.559 95.7045C232.559 96.117 232.616 96.4817 232.73 96.7987C232.847 97.1126 233.015 97.3588 233.233 97.5373C233.455 97.7127 233.727 97.8004 234.05 97.8004Z" fill="#0C0C0F"/>
<rect x="265.75" y="77" width="89.5" height="34.5" rx="17.25" fill="white"/>
<rect x="265.75" y="77" width="89.5" height="34.5" rx="17.25" stroke="#E4E4EC" stroke-width="1.5"/>
<path d="M279.822 89.7955H282.287L284.891 96.1477H285.001L287.605 89.7955H290.07V99.25H288.131V93.0962H288.053L285.606 99.2038H284.286L281.839 93.0732H281.761V99.25H279.822V89.7955ZM296.228 96.2308V92.1591H298.194V99.25H296.306V97.962H296.232C296.072 98.3775 295.806 98.7114 295.434 98.9638C295.064 99.2161 294.613 99.3423 294.081 99.3423C293.607 99.3423 293.19 99.2346 292.83 99.0192C292.47 98.8037 292.188 98.4975 291.985 98.1005C291.785 97.7035 291.683 97.228 291.68 96.674V92.1591H293.647V96.3232C293.65 96.7417 293.762 97.0726 293.984 97.3157C294.206 97.5588 294.503 97.6804 294.875 97.6804C295.112 97.6804 295.333 97.6265 295.54 97.5188C295.746 97.408 295.912 97.2449 296.038 97.0295C296.168 96.814 296.231 96.5478 296.228 96.2308ZM305.667 94.1811L303.867 94.2919C303.836 94.138 303.77 93.9995 303.668 93.8764C303.567 93.7502 303.433 93.6502 303.267 93.5763C303.103 93.4994 302.908 93.4609 302.68 93.4609C302.376 93.4609 302.119 93.5256 301.909 93.6548C301.7 93.781 301.595 93.9503 301.595 94.1626C301.595 94.3319 301.663 94.475 301.798 94.592C301.934 94.7089 302.166 94.8028 302.496 94.8736L303.779 95.1321C304.468 95.2737 304.982 95.5014 305.321 95.8153C305.659 96.1293 305.829 96.5417 305.829 97.0526C305.829 97.5173 305.692 97.9251 305.418 98.2759C305.147 98.6268 304.775 98.9007 304.301 99.0977C303.83 99.2915 303.287 99.3885 302.671 99.3885C301.732 99.3885 300.984 99.1931 300.427 98.8022C299.873 98.4083 299.549 97.8728 299.453 97.1957L301.388 97.0941C301.446 97.3803 301.588 97.5988 301.812 97.7496C302.037 97.8974 302.325 97.9712 302.676 97.9712C303.02 97.9712 303.297 97.9051 303.507 97.7727C303.719 97.6373 303.827 97.4634 303.83 97.2511C303.827 97.0726 303.751 96.9264 303.604 96.8125C303.456 96.6955 303.228 96.6063 302.92 96.5447L301.692 96.3001C301 96.1616 300.484 95.9215 300.146 95.5799C299.81 95.2383 299.643 94.8028 299.643 94.2734C299.643 93.8179 299.766 93.4255 300.012 93.0962C300.261 92.7669 300.61 92.513 301.06 92.3345C301.512 92.156 302.042 92.0668 302.648 92.0668C303.544 92.0668 304.248 92.256 304.762 92.6346C305.279 93.0131 305.581 93.5286 305.667 94.1811ZM307.067 99.25V92.1591H309.034V99.25H307.067ZM308.055 91.245C307.763 91.245 307.512 91.1481 307.302 90.9542C307.096 90.7572 306.993 90.5218 306.993 90.2479C306.993 89.977 307.096 89.7447 307.302 89.5508C307.512 89.3538 307.763 89.2553 308.055 89.2553C308.347 89.2553 308.597 89.3538 308.803 89.5508C309.012 89.7447 309.117 89.977 309.117 90.2479C309.117 90.5218 309.012 90.7572 308.803 90.9542C308.597 91.1481 308.347 91.245 308.055 91.245ZM315.295 101.909V98.1143H315.235C315.142 98.3113 315.012 98.5067 314.842 98.7006C314.676 98.8915 314.459 99.05 314.191 99.1761C313.927 99.3023 313.604 99.3654 313.222 99.3654C312.683 99.3654 312.196 99.2269 311.759 98.9499C311.325 98.6699 310.98 98.259 310.724 97.7173C310.472 97.1726 310.346 96.5047 310.346 95.7138C310.346 94.9013 310.477 94.2257 310.738 93.6871C311 93.1455 311.348 92.7408 311.782 92.473C312.219 92.2022 312.697 92.0668 313.217 92.0668C313.614 92.0668 313.945 92.1345 314.21 92.2699C314.478 92.4022 314.693 92.5684 314.856 92.7685C315.022 92.9654 315.149 93.1593 315.235 93.3501H315.318V92.1591H317.257V101.909H315.295ZM313.845 97.8004C314.162 97.8004 314.43 97.7143 314.648 97.5419C314.87 97.3665 315.039 97.1218 315.156 96.8079C315.276 96.494 315.336 96.1262 315.336 95.7045C315.336 95.2829 315.278 94.9167 315.161 94.6058C315.044 94.295 314.875 94.0549 314.653 93.8857C314.431 93.7164 314.162 93.6317 313.845 93.6317C313.522 93.6317 313.25 93.7195 313.028 93.8949C312.806 94.0703 312.639 94.3134 312.525 94.6243C312.411 94.9351 312.354 95.2952 312.354 95.7045C312.354 96.117 312.411 96.4817 312.525 96.7987C312.642 97.1126 312.81 97.3588 313.028 97.5373C313.25 97.7127 313.522 97.8004 313.845 97.8004ZM323.383 96.2308V92.1591H325.349V99.25H323.461V97.962H323.387C323.227 98.3775 322.961 98.7114 322.589 98.9638C322.219 99.2161 321.769 99.3423 321.236 99.3423C320.762 99.3423 320.345 99.2346 319.985 99.0192C319.625 98.8037 319.343 98.4975 319.14 98.1005C318.94 97.7035 318.839 97.228 318.836 96.674V92.1591H320.802V96.3232C320.805 96.7417 320.918 97.0726 321.139 97.3157C321.361 97.5588 321.658 97.6804 322.03 97.6804C322.267 97.6804 322.489 97.6265 322.695 97.5188C322.901 97.408 323.067 97.2449 323.194 97.0295C323.323 96.814 323.386 96.5478 323.383 96.2308ZM330.154 99.3885C329.425 99.3885 328.797 99.2408 328.271 98.9453C327.747 98.6468 327.344 98.2251 327.061 97.6804C326.778 97.1326 326.636 96.4847 326.636 95.7369C326.636 95.0075 326.778 94.3673 327.061 93.8164C327.344 93.2655 327.743 92.8362 328.257 92.5284C328.774 92.2206 329.38 92.0668 330.076 92.0668C330.543 92.0668 330.979 92.1422 331.382 92.293C331.788 92.4407 332.142 92.6638 332.444 92.9624C332.748 93.2609 332.985 93.6364 333.155 94.0888C333.324 94.5381 333.409 95.0644 333.409 95.6676V96.2077H327.421V94.989H331.557C331.557 94.7058 331.496 94.455 331.373 94.2365C331.25 94.018 331.079 93.8472 330.86 93.7241C330.645 93.5979 330.394 93.5348 330.108 93.5348C329.809 93.5348 329.545 93.604 329.314 93.7425C329.086 93.878 328.908 94.0611 328.778 94.2919C328.649 94.5196 328.583 94.7736 328.58 95.0536V96.2124C328.58 96.5632 328.644 96.8664 328.774 97.1218C328.906 97.3772 329.092 97.5742 329.332 97.7127C329.572 97.8512 329.857 97.9205 330.186 97.9205C330.405 97.9205 330.605 97.8897 330.786 97.8281C330.968 97.7666 331.123 97.6742 331.253 97.5511C331.382 97.428 331.48 97.2772 331.548 97.0987L333.367 97.2188C333.275 97.6558 333.085 98.0374 332.799 98.3636C332.516 98.6868 332.15 98.9392 331.701 99.1207C331.254 99.2992 330.739 99.3885 330.154 99.3885Z" fill="#0C0C0F"/>
<rect x="364.75" y="77" width="53.5" height="34.5" rx="17.25" fill="white"/>
<rect x="364.75" y="77" width="53.5" height="34.5" rx="17.25" stroke="#E4E4EC" stroke-width="1.5"/>
<path d="M380.451 99.25H378.309L381.573 89.7955H384.149L387.408 99.25H385.266L382.898 91.956H382.824L380.451 99.25ZM380.317 95.5337H385.377V97.0941H380.317V95.5337ZM388.509 99.25V92.1591H390.416V93.3963H390.49C390.619 92.9562 390.836 92.6238 391.141 92.3991C391.445 92.1714 391.796 92.0575 392.193 92.0575C392.292 92.0575 392.398 92.0637 392.512 92.076C392.626 92.0883 392.726 92.1052 392.812 92.1268V93.8718C392.72 93.8441 392.592 93.8195 392.429 93.7979C392.266 93.7764 392.116 93.7656 391.981 93.7656C391.692 93.7656 391.433 93.8287 391.205 93.9549C390.981 94.078 390.802 94.2504 390.67 94.4719C390.541 94.6935 390.476 94.949 390.476 95.2383V99.25H388.509ZM397.956 92.1591V93.6364H393.686V92.1591H397.956ZM394.655 90.4602H396.622V97.071C396.622 97.2526 396.649 97.3942 396.705 97.4957C396.76 97.5942 396.837 97.6635 396.936 97.7035C397.037 97.7435 397.154 97.7635 397.286 97.7635C397.379 97.7635 397.471 97.7558 397.563 97.7404C397.656 97.7219 397.727 97.7081 397.776 97.6989L398.085 99.1623C397.987 99.1931 397.848 99.2285 397.67 99.2685C397.491 99.3116 397.274 99.3377 397.019 99.3469C396.545 99.3654 396.129 99.3023 395.772 99.1577C395.418 99.013 395.143 98.7884 394.946 98.4837C394.749 98.179 394.652 97.7943 394.655 97.3295V90.4602Z" fill="#0C0C0F"/>
<rect x="40" y="4" width="77.4219" height="30" rx="3" fill="white"/>
<rect x="40.5" y="4.5" width="76.4219" height="29" rx="2.5" stroke="white" stroke-opacity="0.0980392"/>
<path d="M53.4063 16.5H52.4375C52.3802 16.2214 52.2799 15.9766 52.1367 15.7656C51.9961 15.5547 51.8242 15.3776 51.6211 15.2344C51.4206 15.0885 51.1979 14.9792 50.9531 14.9062C50.7083 14.8333 50.4531 14.7969 50.1875 14.7969C49.7031 14.7969 49.2643 14.9193 48.8711 15.1641C48.4805 15.4089 48.1693 15.7695 47.9375 16.2461C47.7083 16.7227 47.5938 17.3073 47.5938 18C47.5938 18.6927 47.7083 19.2773 47.9375 19.7539C48.1693 20.2305 48.4805 20.5911 48.8711 20.8359C49.2643 21.0807 49.7031 21.2031 50.1875 21.2031C50.4531 21.2031 50.7083 21.1667 50.9531 21.0937C51.1979 21.0208 51.4206 20.9128 51.6211 20.7695C51.8242 20.6237 51.9961 20.4453 52.1367 20.2344C52.2799 20.0208 52.3802 19.776 52.4375 19.5H53.4063C53.3333 19.9089 53.2005 20.2747 53.0078 20.5977C52.8151 20.9206 52.5755 21.1953 52.2891 21.4219C52.0026 21.6458 51.681 21.8164 51.3242 21.9336C50.9701 22.0508 50.5911 22.1094 50.1875 22.1094C49.5052 22.1094 48.8984 21.9427 48.3672 21.6094C47.8359 21.276 47.418 20.8021 47.1133 20.1875C46.8086 19.5729 46.6563 18.8437 46.6563 18C46.6563 17.1562 46.8086 16.4271 47.1133 15.8125C47.418 15.1979 47.8359 14.724 48.3672 14.3906C48.8984 14.0573 49.5052 13.8906 50.1875 13.8906C50.5911 13.8906 50.9701 13.9492 51.3242 14.0664C51.681 14.1836 52.0026 14.3555 52.2891 14.582C52.5755 14.806 52.8151 15.0794 53.0078 15.4023C53.2005 15.7227 53.3333 16.0885 53.4063 16.5ZM57.2842 22.125C56.7425 22.125 56.2673 21.9961 55.8584 21.7383C55.4521 21.4805 55.1344 21.1198 54.9053 20.6562C54.6787 20.1927 54.5654 19.651 54.5654 19.0312C54.5654 18.4062 54.6787 17.8607 54.9053 17.3945C55.1344 16.9284 55.4521 16.5664 55.8584 16.3086C56.2673 16.0508 56.7425 15.9219 57.2842 15.9219C57.8258 15.9219 58.2998 16.0508 58.7061 16.3086C59.1149 16.5664 59.4326 16.9284 59.6592 17.3945C59.8883 17.8607 60.0029 18.4062 60.0029 19.0312C60.0029 19.651 59.8883 20.1927 59.6592 20.6562C59.4326 21.1198 59.1149 21.4805 58.7061 21.7383C58.2998 21.9961 57.8258 22.125 57.2842 22.125ZM57.2842 21.2969C57.6956 21.2969 58.0342 21.1914 58.2998 20.9805C58.5654 20.7695 58.762 20.4922 58.8896 20.1484C59.0173 19.8047 59.0811 19.4323 59.0811 19.0312C59.0811 18.6302 59.0173 18.2565 58.8896 17.9102C58.762 17.5638 58.5654 17.2839 58.2998 17.0703C58.0342 16.8568 57.6956 16.75 57.2842 16.75C56.8727 16.75 56.5342 16.8568 56.2686 17.0703C56.0029 17.2839 55.8063 17.5638 55.6787 17.9102C55.5511 18.2565 55.4873 18.6302 55.4873 19.0312C55.4873 19.4323 55.5511 19.8047 55.6787 20.1484C55.8063 20.4922 56.0029 20.7695 56.2686 20.9805C56.5342 21.1914 56.8727 21.2969 57.2842 21.2969ZM61.4102 22V16H62.3008V16.9375H62.3789C62.5039 16.6172 62.7057 16.3685 62.9844 16.1914C63.263 16.0117 63.5977 15.9219 63.9883 15.9219C64.3841 15.9219 64.7135 16.0117 64.9766 16.1914C65.2422 16.3685 65.4492 16.6172 65.5977 16.9375H65.6602C65.8138 16.6276 66.0443 16.3815 66.3516 16.1992C66.6589 16.0143 67.0273 15.9219 67.457 15.9219C67.9935 15.9219 68.4323 16.0898 68.7734 16.4258C69.1146 16.7591 69.2852 17.2786 69.2852 17.9844V22H68.3633V17.9844C68.3633 17.5417 68.2422 17.2253 68 17.0352C67.7578 16.8451 67.4727 16.75 67.1445 16.75C66.7227 16.75 66.3958 16.8776 66.1641 17.1328C65.9323 17.3854 65.8164 17.7057 65.8164 18.0937V22H64.8789V17.8906C64.8789 17.5495 64.7682 17.2747 64.5469 17.0664C64.3255 16.8555 64.0404 16.75 63.6914 16.75C63.4518 16.75 63.2279 16.8138 63.0195 16.9414C62.8138 17.069 62.6471 17.2461 62.5195 17.4727C62.3945 17.6966 62.332 17.9557 62.332 18.25V22H61.4102ZM70.9707 24.25V16H71.8613V16.9531H71.9707C72.0384 16.849 72.1322 16.7161 72.252 16.5547C72.3743 16.3906 72.5488 16.2448 72.7754 16.1172C73.0046 15.987 73.3145 15.9219 73.7051 15.9219C74.2103 15.9219 74.6556 16.0482 75.041 16.3008C75.4264 16.5534 75.7272 16.9115 75.9434 17.375C76.1595 17.8385 76.2676 18.3854 76.2676 19.0156C76.2676 19.651 76.1595 20.2018 75.9434 20.668C75.7272 21.1315 75.4277 21.4909 75.0449 21.7461C74.6621 21.9987 74.2207 22.125 73.7207 22.125C73.3353 22.125 73.0267 22.0612 72.7949 21.9336C72.5632 21.8034 72.3848 21.6562 72.2598 21.4922C72.1348 21.3255 72.0384 21.1875 71.9707 21.0781H71.8926V24.25H70.9707ZM71.877 19C71.877 19.4531 71.9434 19.8529 72.0762 20.1992C72.209 20.543 72.403 20.8125 72.6582 21.0078C72.9134 21.2005 73.2259 21.2969 73.5957 21.2969C73.9811 21.2969 74.3027 21.1953 74.5605 20.9922C74.821 20.7865 75.0163 20.5104 75.1465 20.1641C75.2793 19.8151 75.3457 19.4271 75.3457 19C75.3457 18.5781 75.2806 18.1979 75.1504 17.8594C75.0228 17.5182 74.8288 17.2487 74.5684 17.0508C74.3105 16.8503 73.9863 16.75 73.5957 16.75C73.2207 16.75 72.9056 16.8451 72.6504 17.0352C72.3952 17.2227 72.2025 17.4857 72.0723 17.8242C71.9421 18.1602 71.877 18.5521 71.877 19ZM80.1113 22.125C79.5697 22.125 79.0944 21.9961 78.6855 21.7383C78.2793 21.4805 77.9616 21.1198 77.7324 20.6562C77.5059 20.1927 77.3926 19.651 77.3926 19.0312C77.3926 18.4062 77.5059 17.8607 77.7324 17.3945C77.9616 16.9284 78.2793 16.5664 78.6855 16.3086C79.0944 16.0508 79.5697 15.9219 80.1113 15.9219C80.653 15.9219 81.127 16.0508 81.5332 16.3086C81.9421 16.5664 82.2598 16.9284 82.4863 17.3945C82.7155 17.8607 82.8301 18.4062 82.8301 19.0312C82.8301 19.651 82.7155 20.1927 82.4863 20.6562C82.2598 21.1198 81.9421 21.4805 81.5332 21.7383C81.127 21.9961 80.653 22.125 80.1113 22.125ZM80.1113 21.2969C80.5228 21.2969 80.8613 21.1914 81.127 20.9805C81.3926 20.7695 81.5892 20.4922 81.7168 20.1484C81.8444 19.8047 81.9082 19.4323 81.9082 19.0312C81.9082 18.6302 81.8444 18.2565 81.7168 17.9102C81.5892 17.5638 81.3926 17.2839 81.127 17.0703C80.8613 16.8568 80.5228 16.75 80.1113 16.75C79.6999 16.75 79.3613 16.8568 79.0957 17.0703C78.8301 17.2839 78.6335 17.5638 78.5059 17.9102C78.3783 18.2565 78.3145 18.6302 78.3145 19.0312C78.3145 19.4323 78.3783 19.8047 78.5059 20.1484C78.6335 20.4922 78.8301 20.7695 79.0957 20.9805C79.3613 21.1914 79.6999 21.2969 80.1113 21.2969ZM88.4873 17.3437L87.6592 17.5781C87.6071 17.4401 87.5303 17.306 87.4287 17.1758C87.3298 17.043 87.1943 16.9336 87.0225 16.8477C86.8506 16.7617 86.6305 16.7187 86.3623 16.7187C85.9951 16.7187 85.6891 16.8034 85.4443 16.9727C85.2021 17.1393 85.0811 17.3516 85.0811 17.6094C85.0811 17.8385 85.1644 18.0195 85.3311 18.1523C85.4977 18.2852 85.7581 18.3958 86.1123 18.4844L87.0029 18.7031C87.5394 18.8333 87.9391 19.0326 88.2021 19.3008C88.4652 19.5664 88.5967 19.9089 88.5967 20.3281C88.5967 20.6719 88.4977 20.9792 88.2998 21.25C88.1045 21.5208 87.8311 21.7344 87.4795 21.8906C87.1279 22.0469 86.7191 22.125 86.2529 22.125C85.641 22.125 85.1344 21.9922 84.7334 21.7266C84.3324 21.4609 84.0785 21.0729 83.9717 20.5625L84.8467 20.3437C84.93 20.6667 85.0876 20.9089 85.3193 21.0703C85.5537 21.2318 85.8597 21.3125 86.2373 21.3125C86.667 21.3125 87.0081 21.2214 87.2607 21.0391C87.516 20.8542 87.6436 20.6328 87.6436 20.375C87.6436 20.1667 87.5706 19.9922 87.4248 19.8516C87.279 19.7083 87.055 19.6016 86.7529 19.5312L85.7529 19.2969C85.2035 19.1667 84.7998 18.9648 84.542 18.6914C84.2868 18.4154 84.1592 18.0703 84.1592 17.6562C84.1592 17.3177 84.2542 17.0182 84.4443 16.7578C84.637 16.4974 84.8988 16.293 85.2295 16.1445C85.5628 15.9961 85.9404 15.9219 86.3623 15.9219C86.9561 15.9219 87.4222 16.0521 87.7607 16.3125C88.1019 16.5729 88.3441 16.9167 88.4873 17.3437ZM91.75 22.1406C91.3698 22.1406 91.0247 22.069 90.7148 21.9258C90.4049 21.7799 90.1589 21.5703 89.9766 21.2969C89.7943 21.0208 89.7031 20.6875 89.7031 20.2969C89.7031 19.9531 89.7708 19.6745 89.9063 19.4609C90.0417 19.2448 90.2227 19.0755 90.4492 18.9531C90.6758 18.8307 90.9258 18.7396 91.1992 18.6797C91.4753 18.6172 91.7526 18.5677 92.0313 18.5313C92.3958 18.4844 92.6914 18.4492 92.918 18.4258C93.1471 18.3997 93.3138 18.3568 93.418 18.2969C93.5247 18.237 93.5781 18.1328 93.5781 17.9844V17.9531C93.5781 17.5677 93.4727 17.2682 93.2617 17.0547C93.0534 16.8411 92.737 16.7344 92.3125 16.7344C91.8724 16.7344 91.5273 16.8307 91.2773 17.0234C91.0273 17.2161 90.8516 17.4219 90.75 17.6406L89.875 17.3281C90.0313 16.9635 90.2396 16.6797 90.5 16.4766C90.763 16.2708 91.0495 16.1276 91.3594 16.0469C91.6719 15.9635 91.9792 15.9219 92.2813 15.9219C92.474 15.9219 92.6953 15.9453 92.9453 15.9922C93.1979 16.0365 93.4414 16.1289 93.6758 16.2695C93.9128 16.4102 94.1094 16.6224 94.2656 16.9062C94.4219 17.1901 94.5 17.5703 94.5 18.0469V22H93.5781V21.1875H93.5313C93.4688 21.3177 93.3646 21.457 93.2188 21.6055C93.0729 21.7539 92.8789 21.8802 92.6367 21.9844C92.3945 22.0885 92.099 22.1406 91.75 22.1406ZM91.8906 21.3125C92.2552 21.3125 92.5625 21.2409 92.8125 21.0977C93.0651 20.9544 93.2552 20.7695 93.3828 20.543C93.513 20.3164 93.5781 20.0781 93.5781 19.8281V18.9844C93.5391 19.0312 93.4531 19.0742 93.3203 19.1133C93.1901 19.1497 93.0391 19.1823 92.8672 19.2109C92.6979 19.237 92.5326 19.2604 92.3711 19.2812C92.2122 19.2995 92.0833 19.3151 91.9844 19.3281C91.7448 19.3594 91.5208 19.4102 91.3125 19.4805C91.1068 19.5482 90.9401 19.651 90.8125 19.7891C90.6875 19.9245 90.625 20.1094 90.625 20.3437C90.625 20.6641 90.7435 20.9062 90.9805 21.0703C91.2201 21.2318 91.5234 21.3125 91.8906 21.3125ZM97.1045 18.3906V22H96.1826V16H97.0732V16.9375H97.1514C97.292 16.6328 97.5055 16.388 97.792 16.2031C98.0785 16.0156 98.4482 15.9219 98.9014 15.9219C99.3076 15.9219 99.6631 16.0052 99.9678 16.1719C100.272 16.3359 100.509 16.5859 100.679 16.9219C100.848 17.2552 100.933 17.6771 100.933 18.1875V22H100.011V18.25C100.011 17.7786 99.8883 17.4115 99.6436 17.1484C99.3988 16.8828 99.0628 16.75 98.6357 16.75C98.3415 16.75 98.0785 16.8138 97.8467 16.9414C97.6175 17.069 97.4365 17.2552 97.3037 17.5C97.1709 17.7448 97.1045 18.0417 97.1045 18.3906ZM105.227 16V16.7812H102.117V16H105.227ZM103.023 14.5625H103.945V20.2812C103.945 20.5417 103.983 20.737 104.059 20.8672C104.137 20.9948 104.236 21.0807 104.355 21.125C104.478 21.1667 104.607 21.1875 104.742 21.1875C104.844 21.1875 104.927 21.1823 104.992 21.1719C105.057 21.1589 105.109 21.1484 105.148 21.1406L105.336 21.9687C105.273 21.9922 105.186 22.0156 105.074 22.0391C104.962 22.0651 104.82 22.0781 104.648 22.0781C104.388 22.0781 104.133 22.0221 103.883 21.9102C103.635 21.7982 103.43 21.6276 103.266 21.3984C103.104 21.1693 103.023 20.8802 103.023 20.5312V14.5625ZM110.756 17.3437L109.928 17.5781C109.876 17.4401 109.799 17.306 109.697 17.1758C109.598 17.043 109.463 16.9336 109.291 16.8477C109.119 16.7617 108.899 16.7187 108.631 16.7187C108.264 16.7187 107.958 16.8034 107.713 16.9727C107.471 17.1393 107.35 17.3516 107.35 17.6094C107.35 17.8385 107.433 18.0195 107.6 18.1523C107.766 18.2852 108.027 18.3958 108.381 18.4844L109.271 18.7031C109.808 18.8333 110.208 19.0326 110.471 19.3008C110.734 19.5664 110.865 19.9089 110.865 20.3281C110.865 20.6719 110.766 20.9792 110.568 21.25C110.373 21.5208 110.1 21.7344 109.748 21.8906C109.396 22.0469 108.988 22.125 108.521 22.125C107.91 22.125 107.403 21.9922 107.002 21.7266C106.601 21.4609 106.347 21.0729 106.24 20.5625L107.115 20.3437C107.199 20.6667 107.356 20.9089 107.588 21.0703C107.822 21.2318 108.128 21.3125 108.506 21.3125C108.936 21.3125 109.277 21.2214 109.529 21.0391C109.785 20.8542 109.912 20.6328 109.912 20.375C109.912 20.1667 109.839 19.9922 109.693 19.8516C109.548 19.7083 109.324 19.6016 109.021 19.5312L108.021 19.2969C107.472 19.1667 107.068 18.9648 106.811 18.6914C106.555 18.4154 106.428 18.0703 106.428 17.6562C106.428 17.3177 106.523 17.0182 106.713 16.7578C106.906 16.4974 107.167 16.293 107.498 16.1445C107.831 15.9961 108.209 15.9219 108.631 15.9219C109.225 15.9219 109.691 16.0521 110.029 16.3125C110.37 16.5729 110.613 16.9167 110.756 17.3437Z" fill="black"/>
</svg>