<svg width="390" height="844" viewBox="0 0 390 844" fill="none" xmlns="http://www.w3.org/2000/svg">
<g clip-path="url(#clip0_115_106)">
<rect width="390" height="844" rx="40" fill="white"/>
<path d="M58.4476 430.526V424.791H84.2431V430.526H58.4476ZM50 434.235L66.1787 409.765H76.6628L92.9924 434.235H82.6214L68.63 412.326H74.2492L60.371 434.235H50Z" fill="#0C0C0E"/>
<path d="M128.041 420.279V409.765H137.469V422C137.469 424.167 137.067 426.015 136.262 427.544C135.483 429.048 134.389 430.297 132.981 431.291C131.573 432.26 129.951 433.012 128.116 433.547C126.281 434.082 124.307 434.452 122.195 434.656C120.108 434.885 117.984 435 115.822 435C113.534 435 111.321 434.885 109.184 434.656C107.047 434.452 105.061 434.082 103.226 433.547C101.416 433.012 99.8316 432.26 98.474 431.291C97.1163 430.297 96.0478 429.048 95.2684 427.544C94.5142 426.015 94.137 424.167 94.137 422V409.765H103.565V420.279C103.565 422.319 104.055 423.874 105.036 424.944C106.017 426.015 107.412 426.754 109.222 427.162C111.057 427.544 113.257 427.735 115.822 427.735C118.311 427.735 120.473 427.544 122.308 427.162C124.144 426.754 125.552 426.015 126.532 424.944C127.538 423.874 128.041 422.319 128.041 420.279Z" fill="#0C0C0E"/>
<path d="M164.737 435C161.469 435 158.465 434.796 155.724 434.388C153.009 434.006 150.645 433.343 148.634 432.4C146.648 431.431 145.102 430.119 143.995 428.462C142.914 426.805 142.374 424.715 142.374 422.191C142.374 419.668 142.927 417.565 144.033 415.882C145.139 414.175 146.723 412.824 148.785 411.829C150.872 410.81 153.348 410.083 156.214 409.65C159.106 409.217 162.324 409 165.869 409C170.52 409 174.417 409.433 177.56 410.3C180.728 411.167 183.141 412.403 184.801 414.009C186.46 415.589 187.352 417.475 187.478 419.668H177.673C177.371 419.107 176.818 418.572 176.013 418.062C175.209 417.526 174.002 417.093 172.393 416.762C170.784 416.43 168.609 416.265 165.869 416.265C162.651 416.265 160.036 416.469 158.025 416.876C156.013 417.259 154.542 417.883 153.612 418.75C152.682 419.617 152.217 420.764 152.217 422.191C152.217 423.44 152.695 424.473 153.65 425.288C154.605 426.104 156.139 426.716 158.251 427.124C160.363 427.531 163.153 427.735 166.623 427.735C169.062 427.735 171.174 427.633 172.959 427.429C174.769 427.2 176.403 426.856 177.861 426.397C179.345 425.938 180.816 425.365 182.274 424.676L183.179 425.785C181.62 428.768 179.307 431.049 176.24 432.629C173.172 434.21 169.338 435 164.737 435ZM180.614 434.235C180.614 433.471 180.715 432.604 180.916 431.635C181.117 430.667 181.369 429.66 181.67 428.615C181.997 427.544 182.312 426.537 182.613 425.594H167.905V421.579H188.006V434.235H180.614Z" fill="#0C0C0E"/>
<path d="M227.184 420.279V409.765H236.612V422C236.612 424.167 236.21 426.015 235.405 427.544C234.626 429.048 233.532 430.297 232.124 431.291C230.716 432.26 229.094 433.012 227.259 433.547C225.424 434.082 223.45 434.452 221.338 434.656C219.251 434.885 217.127 435 214.965 435C212.677 435 210.464 434.885 208.327 434.656C206.19 434.452 204.204 434.082 202.369 433.547C200.559 433.012 198.975 432.26 197.617 431.291C196.259 430.297 195.191 429.048 194.411 427.544C193.657 426.015 193.28 424.167 193.28 422V409.765H202.708V420.279C202.708 422.319 203.198 423.874 204.179 424.944C205.159 426.015 206.555 426.754 208.365 427.162C210.2 427.544 212.4 427.735 214.965 427.735C217.454 427.735 219.616 427.544 221.451 427.162C223.287 426.754 224.695 426.015 225.675 424.944C226.681 423.874 227.184 422.319 227.184 420.279Z" fill="#0C0C0E"/>
<path d="M241.894 434.235V409.765H271.046C273.334 409.765 275.383 410.032 277.193 410.568C279.028 411.077 280.474 411.944 281.53 413.168C282.611 414.391 283.152 416.061 283.152 418.176C283.152 419.578 282.9 420.738 282.397 421.656C281.894 422.574 281.203 423.287 280.323 423.797C279.443 424.307 278.437 424.676 277.306 424.906C276.175 425.135 274.993 425.275 273.761 425.326L271.008 424.791C274 424.817 276.3 424.944 277.909 425.174C279.544 425.403 280.675 425.824 281.304 426.435C281.957 427.022 282.284 427.875 282.284 428.997V434.235H272.856V430.144C272.856 429.379 272.705 428.806 272.403 428.424C272.127 428.016 271.498 427.735 270.518 427.582C269.562 427.429 268.079 427.353 266.068 427.353H251.322V434.235H241.894ZM251.322 420.968H271.046C271.8 420.968 272.429 420.84 272.931 420.585C273.459 420.33 273.723 419.846 273.723 419.132C273.723 418.47 273.459 418.024 272.931 417.794C272.429 417.539 271.8 417.412 271.046 417.412H251.322V420.968Z" fill="#0C0C0E"/>
<path d="M297.8 423.912V426.971H326.462V434.235H288.372V409.765H326.386V417.029H297.8V420.088H321.182V423.912H297.8Z" fill="#0C0C0E"/>
<path d="M330.7 428.606H340V434.235H330.7V428.606Z" fill="#4127FF"/>
<line y1="-0.468361" x2="290.816" y2="-0.468361" transform="matrix(1 0.000857123 0.56497 0.825111 -184.455 270.337)" stroke="url(#paint0_linear_115_106)" stroke-width="0.936722"/>
<line y1="-0.468361" x2="290.816" y2="-0.468361" transform="matrix(1 0.000857123 0.56497 0.825111 -175.531 275.489)" stroke="url(#paint1_linear_115_106)" stroke-width="0.936722"/>
<line y1="-0.468361" x2="290.816" y2="-0.468361" transform="matrix(1 0.000857123 0.56497 0.825111 -166.608 280.641)" stroke="url(#paint2_linear_115_106)" stroke-width="0.936722"/>
<line y1="-0.468361" x2="290.816" y2="-0.468361" transform="matrix(1 0.000857123 0.56497 0.825111 -157.684 285.793)" stroke="url(#paint3_linear_115_106)" stroke-width="0.936722"/>
<line y1="-0.468361" x2="290.816" y2="-0.468361" transform="matrix(1 0.000857123 0.56497 0.825111 -148.761 290.945)" stroke="url(#paint4_linear_115_106)" stroke-width="0.936722"/>
<line y1="-0.468361" x2="290.816" y2="-0.468361" transform="matrix(1 0.000857123 0.56497 0.825111 -139.838 296.097)" stroke="url(#paint5_linear_115_106)" stroke-width="0.936722"/>
<line y1="-0.468361" x2="290.816" y2="-0.468361" transform="matrix(1 0.000857123 0.56497 0.825111 -130.914 301.249)" stroke="url(#paint6_linear_115_106)" stroke-width="0.936722"/>
<line y1="-0.468361" x2="290.816" y2="-0.468361" transform="matrix(1 0.000857123 0.56497 0.825111 -121.991 306.401)" stroke="url(#paint7_linear_115_106)" stroke-width="0.936722"/>
<line y1="-0.468361" x2="290.816" y2="-0.468361" transform="matrix(1 0.000857123 0.56497 0.825111 -113.067 311.553)" stroke="url(#paint8_linear_115_106)" stroke-width="0.936722"/>
<line y1="-0.468361" x2="290.816" y2="-0.468361" transform="matrix(1 0.000857123 0.56497 0.825111 -104.144 316.705)" stroke="url(#paint9_linear_115_106)" stroke-width="0.936722"/>
<line y1="-0.468361" x2="290.816" y2="-0.468361" transform="matrix(1 0.000857123 0.56497 0.825111 -95.2202 321.857)" stroke="url(#paint10_linear_115_106)" stroke-width="0.936722"/>
<line y1="-0.468361" x2="290.816" y2="-0.468361" transform="matrix(1 0.000857123 0.56497 0.825111 -86.2966 327.009)" stroke="url(#paint11_linear_115_106)" stroke-width="0.936722"/>
<line y1="-0.468361" x2="290.816" y2="-0.468361" transform="matrix(1 0.000857123 0.56497 0.825111 -77.373 332.161)" stroke="url(#paint12_linear_115_106)" stroke-width="0.936722"/>
<line y1="-0.468361" x2="290.816" y2="-0.468361" transform="matrix(1 0.000857123 0.56497 0.825111 -68.4495 337.313)" stroke="url(#paint13_linear_115_106)" stroke-width="0.936722"/>
<line y1="-0.468361" x2="290.816" y2="-0.468361" transform="matrix(1 0.000857123 0.56497 0.825111 -59.5261 342.465)" stroke="url(#paint14_linear_115_106)" stroke-width="0.936722"/>
<line y1="-0.468361" x2="290.816" y2="-0.468361" transform="matrix(1 0.000857123 0.56497 0.825111 -50.6025 347.617)" stroke="url(#paint15_linear_115_106)" stroke-width="0.936722"/>
<line y1="-0.468361" x2="290.816" y2="-0.468361" transform="matrix(1 0.000857123 0.56497 0.825111 -41.679 352.769)" stroke="url(#paint16_linear_115_106)" stroke-width="0.936722"/>
<line y1="-0.468361" x2="290.816" y2="-0.468361" transform="matrix(1 0.000857123 0.56497 0.825111 -32.7556 357.921)" stroke="url(#paint17_linear_115_106)" stroke-width="0.936722"/>
<line y1="-0.468361" x2="290.816" y2="-0.468361" transform="matrix(1 0.000857123 0.56497 0.825111 -23.8323 363.073)" stroke="url(#paint18_linear_115_106)" stroke-width="0.936722"/>
<line y1="-0.468361" x2="290.816" y2="-0.468361" transform="matrix(1 0.000857123 0.56497 0.825111 -14.9087 368.225)" stroke="url(#paint19_linear_115_106)" stroke-width="0.936722"/>
<line y1="-0.468361" x2="290.816" y2="-0.468361" transform="matrix(1 0.000857123 0.56497 0.825111 -5.98535 373.376)" stroke="url(#paint20_linear_115_106)" stroke-width="0.936722"/>
<line y1="-0.468361" x2="290.816" y2="-0.468361" transform="matrix(1 0.000857123 0.56497 0.825111 2.93848 378.529)" stroke="url(#paint21_linear_115_106)" stroke-width="0.936722"/>
<line y1="-0.468361" x2="290.816" y2="-0.468361" transform="matrix(1 0.000857123 0.56497 0.825111 11.8618 383.681)" stroke="url(#paint22_linear_115_106)" stroke-width="0.936722"/>
<line y1="-0.468361" x2="290.816" y2="-0.468361" transform="matrix(1 0.000857123 0.56497 0.825111 20.7854 388.833)" stroke="url(#paint23_linear_115_106)" stroke-width="0.936722"/>
<line y1="-0.468361" x2="290.816" y2="-0.468361" transform="matrix(1 0.000857123 0.56497 0.825111 29.7087 393.985)" stroke="url(#paint24_linear_115_106)" stroke-width="0.936722"/>
<line y1="-0.468361" x2="290.816" y2="-0.468361" transform="matrix(1 0.000857123 0.56497 0.825111 38.6323 399.136)" stroke="url(#paint25_linear_115_106)" stroke-width="0.936722"/>
<line y1="-0.468361" x2="290.816" y2="-0.468361" transform="matrix(1 0.000857123 0.56497 0.825111 73.5452 447.143)" stroke="url(#paint26_linear_115_106)" stroke-width="0.936722"/>
<line y1="-0.468361" x2="290.816" y2="-0.468361" transform="matrix(1 0.000857123 0.56497 0.825111 82.4688 452.295)" stroke="url(#paint27_linear_115_106)" stroke-width="0.936722"/>
<line y1="-0.468361" x2="290.816" y2="-0.468361" transform="matrix(1 0.000857123 0.56497 0.825111 91.3921 457.447)" stroke="url(#paint28_linear_115_106)" stroke-width="0.936722"/>
<line y1="-0.468361" x2="290.816" y2="-0.468361" transform="matrix(1 0.000857123 0.56497 0.825111 100.316 462.599)" stroke="url(#paint29_linear_115_106)" stroke-width="0.936722"/>
<line y1="-0.468361" x2="290.816" y2="-0.468361" transform="matrix(1 0.000857123 0.56497 0.825111 109.239 467.751)" stroke="url(#paint30_linear_115_106)" stroke-width="0.936722"/>
<line y1="-0.468361" x2="290.816" y2="-0.468361" transform="matrix(1 0.000857123 0.56497 0.825111 118.162 472.903)" stroke="url(#paint31_linear_115_106)" stroke-width="0.936722"/>
<line y1="-0.468361" x2="290.816" y2="-0.468361" transform="matrix(1 0.000857123 0.56497 0.825111 127.086 478.055)" stroke="url(#paint32_linear_115_106)" stroke-width="0.936722"/>
<line y1="-0.468361" x2="290.816" y2="-0.468361" transform="matrix(1 0.000857123 0.56497 0.825111 136.009 483.207)" stroke="url(#paint33_linear_115_106)" stroke-width="0.936722"/>
<line y1="-0.468361" x2="290.816" y2="-0.468361" transform="matrix(1 0.000857123 0.56497 0.825111 144.933 488.359)" stroke="url(#paint34_linear_115_106)" stroke-width="0.936722"/>
<line y1="-0.468361" x2="290.816" y2="-0.468361" transform="matrix(1 0.000857123 0.56497 0.825111 153.856 493.511)" stroke="url(#paint35_linear_115_106)" stroke-width="0.936722"/>
<line y1="-0.468361" x2="290.816" y2="-0.468361" transform="matrix(1 0.000857123 0.56497 0.825111 162.78 498.663)" stroke="url(#paint36_linear_115_106)" stroke-width="0.936722"/>
<line y1="-0.468361" x2="290.816" y2="-0.468361" transform="matrix(1 0.000857123 0.56497 0.825111 171.703 503.815)" stroke="url(#paint37_linear_115_106)" stroke-width="0.936722"/>
<line y1="-0.468361" x2="290.816" y2="-0.468361" transform="matrix(1 0.000857123 0.56497 0.825111 180.627 508.967)" stroke="url(#paint38_linear_115_106)" stroke-width="0.936722"/>
<line y1="-0.468361" x2="290.816" y2="-0.468361" transform="matrix(1 0.000857123 0.56497 0.825111 189.551 514.119)" stroke="url(#paint39_linear_115_106)" stroke-width="0.936722"/>
<line y1="-0.468361" x2="290.816" y2="-0.468361" transform="matrix(1 0.000857123 0.56497 0.825111 198.474 519.271)" stroke="url(#paint40_linear_115_106)" stroke-width="0.936722"/>
<line y1="-0.468361" x2="290.816" y2="-0.468361" transform="matrix(1 0.000857123 0.56497 0.825111 207.397 524.423)" stroke="url(#paint41_linear_115_106)" stroke-width="0.936722"/>
<line y1="-0.468361" x2="290.816" y2="-0.468361" transform="matrix(1 0.000857123 0.56497 0.825111 216.321 529.575)" stroke="url(#paint42_linear_115_106)" stroke-width="0.936722"/>
<line y1="-0.468361" x2="290.816" y2="-0.468361" transform="matrix(1 0.000857123 0.56497 0.825111 225.244 534.727)" stroke="url(#paint43_linear_115_106)" stroke-width="0.936722"/>
<line y1="-0.468361" x2="290.816" y2="-0.468361" transform="matrix(1 0.000857123 0.56497 0.825111 234.168 539.878)" stroke="url(#paint44_linear_115_106)" stroke-width="0.936722"/>
<line y1="-0.468361" x2="290.816" y2="-0.468361" transform="matrix(1 0.000857123 0.56497 0.825111 243.091 545.031)" stroke="url(#paint45_linear_115_106)" stroke-width="0.936722"/>
<line y1="-0.468361" x2="290.816" y2="-0.468361" transform="matrix(1 0.000857123 0.56497 0.825111 252.015 550.183)" stroke="url(#paint46_linear_115_106)" stroke-width="0.936722"/>
<line y1="-0.468361" x2="290.816" y2="-0.468361" transform="matrix(1 0.000857123 0.56497 0.825111 260.938 555.334)" stroke="url(#paint47_linear_115_106)" stroke-width="0.936722"/>
<line y1="-0.468361" x2="290.816" y2="-0.468361" transform="matrix(1 0.000857123 0.56497 0.825111 269.862 560.487)" stroke="url(#paint48_linear_115_106)" stroke-width="0.936722"/>
<line y1="-0.468361" x2="290.816" y2="-0.468361" transform="matrix(1 0.000857123 0.56497 0.825111 278.785 565.638)" stroke="url(#paint49_linear_115_106)" stroke-width="0.936722"/>
<line y1="-0.468361" x2="290.816" y2="-0.468361" transform="matrix(1 0.000857123 0.56497 0.825111 287.709 570.791)" stroke="url(#paint50_linear_115_106)" stroke-width="0.936722"/>
<line y1="-0.468361" x2="290.816" y2="-0.468361" transform="matrix(1 0.000857123 0.56497 0.825111 296.632 575.942)" stroke="url(#paint51_linear_115_106)" stroke-width="0.936722"/>
<line y1="-0.468361" x2="290.816" y2="-0.468361" transform="matrix(1 0.000857123 0.56497 0.825111 305.556 581.094)" stroke="url(#paint52_linear_115_106)" stroke-width="0.936722"/>
<line y1="-0.468361" x2="290.816" y2="-0.468361" transform="matrix(1 0.000857123 0.56497 0.825111 314.479 586.246)" stroke="url(#paint53_linear_115_106)" stroke-width="0.936722"/>
<line y1="-0.468361" x2="290.816" y2="-0.468361" transform="matrix(1 0.000857123 0.56497 0.825111 323.403 591.398)" stroke="url(#paint54_linear_115_106)" stroke-width="0.936722"/>
<line y1="-0.468361" x2="290.816" y2="-0.468361" transform="matrix(1 0.000857123 0.56497 0.825111 332.326 596.55)" stroke="url(#paint55_linear_115_106)" stroke-width="0.936722"/>
<line y1="-0.468361" x2="290.816" y2="-0.468361" transform="matrix(1 0.000857123 0.56497 0.825111 341.25 601.702)" stroke="url(#paint56_linear_115_106)" stroke-width="0.936722"/>
<line y1="-0.468361" x2="290.816" y2="-0.468361" transform="matrix(1 0.000857123 0.56497 0.825111 350.173 606.854)" stroke="url(#paint57_linear_115_106)" stroke-width="0.936722"/>
<line y1="-0.468361" x2="290.816" y2="-0.468361" transform="matrix(1 0.000857123 0.56497 0.825111 359.097 612.006)" stroke="url(#paint58_linear_115_106)" stroke-width="0.936722"/>
<line y1="-0.468361" x2="290.816" y2="-0.468361" transform="matrix(1 0.000857123 0.56497 0.825111 368.02 617.158)" stroke="url(#paint59_linear_115_106)" stroke-width="0.936722"/>
<line y1="-0.468361" x2="290.816" y2="-0.468361" transform="matrix(1 0.000857123 0.56497 0.825111 376.944 622.31)" stroke="url(#paint60_linear_115_106)" stroke-width="0.936722"/>
<line y1="-0.468361" x2="290.816" y2="-0.468361" transform="matrix(1 0.000857123 0.56497 0.825111 385.867 627.462)" stroke="url(#paint61_linear_115_106)" stroke-width="0.936722"/>
</g>
<defs>
<linearGradient id="paint0_linear_115_106" x1="290.816" y1="0.5" x2="0" y2="0.5" gradientUnits="userSpaceOnUse">
<stop stop-color="#C9C9C9"/>
<stop offset="1" stop-color="#3D28FF"/>
</linearGradient>
<linearGradient id="paint1_linear_115_106" x1="290.816" y1="0.5" x2="0" y2="0.5" gradientUnits="userSpaceOnUse">
<stop stop-color="#C9C9C9"/>
<stop offset="1" stop-color="#3D28FF"/>
</linearGradient>
<linearGradient id="paint2_linear_115_106" x1="290.816" y1="0.5" x2="0" y2="0.5" gradientUnits="userSpaceOnUse">
<stop stop-color="#C9C9C9"/>
<stop offset="1" stop-color="#3D28FF"/>
</linearGradient>
<linearGradient id="paint3_linear_115_106" x1="290.816" y1="0.5" x2="0" y2="0.5" gradientUnits="userSpaceOnUse">
<stop stop-color="#C9C9C9"/>
<stop offset="1" stop-color="#3D28FF"/>
</linearGradient>
<linearGradient id="paint4_linear_115_106" x1="290.816" y1="0.5" x2="0" y2="0.5" gradientUnits="userSpaceOnUse">
<stop stop-color="#C9C9C9"/>
<stop offset="1" stop-color="#3D28FF"/>
</linearGradient>
<linearGradient id="paint5_linear_115_106" x1="290.816" y1="0.5" x2="0" y2="0.5" gradientUnits="userSpaceOnUse">
<stop stop-color="#C9C9C9"/>
<stop offset="1" stop-color="#3D28FF"/>
</linearGradient>
<linearGradient id="paint6_linear_115_106" x1="290.816" y1="0.5" x2="0" y2="0.5" gradientUnits="userSpaceOnUse">
<stop stop-color="#C9C9C9"/>
<stop offset="1" stop-color="#3D28FF"/>
</linearGradient>
<linearGradient id="paint7_linear_115_106" x1="290.816" y1="0.5" x2="0" y2="0.5" gradientUnits="userSpaceOnUse">
<stop stop-color="#C9C9C9"/>
<stop offset="1" stop-color="#3D28FF"/>
</linearGradient>
<linearGradient id="paint8_linear_115_106" x1="290.816" y1="0.5" x2="0" y2="0.5" gradientUnits="userSpaceOnUse">
<stop stop-color="#C9C9C9"/>
<stop offset="1" stop-color="#3D28FF"/>
</linearGradient>
<linearGradient id="paint9_linear_115_106" x1="290.816" y1="0.5" x2="0" y2="0.5" gradientUnits="userSpaceOnUse">
<stop stop-color="#C9C9C9"/>
<stop offset="1" stop-color="#3D28FF"/>
</linearGradient>
<linearGradient id="paint10_linear_115_106" x1="290.816" y1="0.5" x2="0" y2="0.5" gradientUnits="userSpaceOnUse">
<stop stop-color="#C9C9C9"/>
<stop offset="1" stop-color="#3D28FF"/>
</linearGradient>
<linearGradient id="paint11_linear_115_106" x1="290.816" y1="0.5" x2="0" y2="0.5" gradientUnits="userSpaceOnUse">
<stop stop-color="#C9C9C9"/>
<stop offset="1" stop-color="#3D28FF"/>
</linearGradient>
<linearGradient id="paint12_linear_115_106" x1="290.816" y1="0.5" x2="0" y2="0.5" gradientUnits="userSpaceOnUse">
<stop stop-color="#C9C9C9"/>
<stop offset="1" stop-color="#3D28FF"/>
</linearGradient>
<linearGradient id="paint13_linear_115_106" x1="290.816" y1="0.5" x2="0" y2="0.5" gradientUnits="userSpaceOnUse">
<stop stop-color="#C9C9C9"/>
<stop offset="1" stop-color="#3D28FF"/>
</linearGradient>
<linearGradient id="paint14_linear_115_106" x1="290.816" y1="0.5" x2="0" y2="0.5" gradientUnits="userSpaceOnUse">
<stop stop-color="#C9C9C9"/>
<stop offset="1" stop-color="#3D28FF"/>
</linearGradient>
<linearGradient id="paint15_linear_115_106" x1="290.816" y1="0.5" x2="0" y2="0.5" gradientUnits="userSpaceOnUse">
<stop stop-color="#C9C9C9"/>
<stop offset="1" stop-color="#3D28FF"/>
</linearGradient>
<linearGradient id="paint16_linear_115_106" x1="290.816" y1="0.5" x2="0" y2="0.5" gradientUnits="userSpaceOnUse">
<stop stop-color="#C9C9C9"/>
<stop offset="1" stop-color="#3D28FF"/>
</linearGradient>
<linearGradient id="paint17_linear_115_106" x1="290.816" y1="0.5" x2="0" y2="0.5" gradientUnits="userSpaceOnUse">
<stop stop-color="#C9C9C9"/>
<stop offset="1" stop-color="#3D28FF"/>
</linearGradient>
<linearGradient id="paint18_linear_115_106" x1="290.816" y1="0.5" x2="0" y2="0.5" gradientUnits="userSpaceOnUse">
<stop stop-color="#C9C9C9"/>
<stop offset="1" stop-color="#3D28FF"/>
</linearGradient>
<linearGradient id="paint19_linear_115_106" x1="290.816" y1="0.5" x2="0" y2="0.5" gradientUnits="userSpaceOnUse">
<stop stop-color="#C9C9C9"/>
<stop offset="1" stop-color="#3D28FF"/>
</linearGradient>
<linearGradient id="paint20_linear_115_106" x1="290.816" y1="0.5" x2="0" y2="0.5" gradientUnits="userSpaceOnUse">
<stop stop-color="#C9C9C9"/>
<stop offset="1" stop-color="#3D28FF"/>
</linearGradient>
<linearGradient id="paint21_linear_115_106" x1="290.816" y1="0.5" x2="0" y2="0.5" gradientUnits="userSpaceOnUse">
<stop stop-color="#C9C9C9"/>
<stop offset="1" stop-color="#3D28FF"/>
</linearGradient>
<linearGradient id="paint22_linear_115_106" x1="290.816" y1="0.5" x2="0" y2="0.5" gradientUnits="userSpaceOnUse">
<stop stop-color="#C9C9C9"/>
<stop offset="1" stop-color="#3D28FF"/>
</linearGradient>
<linearGradient id="paint23_linear_115_106" x1="290.816" y1="0.5" x2="0" y2="0.5" gradientUnits="userSpaceOnUse">
<stop stop-color="#C9C9C9"/>
<stop offset="1" stop-color="#3D28FF"/>
</linearGradient>
<linearGradient id="paint24_linear_115_106" x1="290.816" y1="0.5" x2="0" y2="0.5" gradientUnits="userSpaceOnUse">
<stop stop-color="#C9C9C9"/>
<stop offset="1" stop-color="#3D28FF"/>
</linearGradient>
<linearGradient id="paint25_linear_115_106" x1="290.816" y1="0.5" x2="0" y2="0.5" gradientUnits="userSpaceOnUse">
<stop stop-color="#C9C9C9"/>
<stop offset="1" stop-color="#3D28FF"/>
</linearGradient>
<linearGradient id="paint26_linear_115_106" x1="290.816" y1="0.5" x2="0" y2="0.5" gradientUnits="userSpaceOnUse">
<stop stop-color="#C9C9C9"/>
<stop offset="1" stop-color="#3D28FF"/>
</linearGradient>
<linearGradient id="paint27_linear_115_106" x1="290.816" y1="0.5" x2="0" y2="0.5" gradientUnits="userSpaceOnUse">
<stop stop-color="#C9C9C9"/>
<stop offset="1" stop-color="#3D28FF"/>
</linearGradient>
<linearGradient id="paint28_linear_115_106" x1="290.816" y1="0.5" x2="0" y2="0.5" gradientUnits="userSpaceOnUse">
<stop stop-color="#C9C9C9"/>
<stop offset="1" stop-color="#3D28FF"/>
</linearGradient>
<linearGradient id="paint29_linear_115_106" x1="290.816" y1="0.5" x2="0" y2="0.5" gradientUnits="userSpaceOnUse">
<stop stop-color="#C9C9C9"/>
<stop offset="1" stop-color="#3D28FF"/>
</linearGradient>
<linearGradient id="paint30_linear_115_106" x1="290.816" y1="0.5" x2="0" y2="0.5" gradientUnits="userSpaceOnUse">
<stop stop-color="#C9C9C9"/>
<stop offset="1" stop-color="#3D28FF"/>
</linearGradient>
<linearGradient id="paint31_linear_115_106" x1="290.816" y1="0.5" x2="0" y2="0.5" gradientUnits="userSpaceOnUse">
<stop stop-color="#C9C9C9"/>
<stop offset="1" stop-color="#3D28FF"/>
</linearGradient>
<linearGradient id="paint32_linear_115_106" x1="290.816" y1="0.5" x2="0" y2="0.5" gradientUnits="userSpaceOnUse">
<stop stop-color="#C9C9C9"/>
<stop offset="1" stop-color="#3D28FF"/>
</linearGradient>
<linearGradient id="paint33_linear_115_106" x1="290.816" y1="0.5" x2="0" y2="0.5" gradientUnits="userSpaceOnUse">
<stop stop-color="#C9C9C9"/>
<stop offset="1" stop-color="#3D28FF"/>
</linearGradient>
<linearGradient id="paint34_linear_115_106" x1="290.816" y1="0.5" x2="0" y2="0.5" gradientUnits="userSpaceOnUse">
<stop stop-color="#C9C9C9"/>
<stop offset="1" stop-color="#3D28FF"/>
</linearGradient>
<linearGradient id="paint35_linear_115_106" x1="290.816" y1="0.5" x2="0" y2="0.5" gradientUnits="userSpaceOnUse">
<stop stop-color="#C9C9C9"/>
<stop offset="1" stop-color="#3D28FF"/>
</linearGradient>
<linearGradient id="paint36_linear_115_106" x1="290.816" y1="0.5" x2="0" y2="0.5" gradientUnits="userSpaceOnUse">
<stop stop-color="#C9C9C9"/>
<stop offset="1" stop-color="#3D28FF"/>
</linearGradient>
<linearGradient id="paint37_linear_115_106" x1="290.816" y1="0.5" x2="0" y2="0.5" gradientUnits="userSpaceOnUse">
<stop stop-color="#C9C9C9"/>
<stop offset="1" stop-color="#3D28FF"/>
</linearGradient>
<linearGradient id="paint38_linear_115_106" x1="290.816" y1="0.5" x2="0" y2="0.5" gradientUnits="userSpaceOnUse">
<stop stop-color="#C9C9C9"/>
<stop offset="1" stop-color="#3D28FF"/>
</linearGradient>
<linearGradient id="paint39_linear_115_106" x1="290.816" y1="0.5" x2="0" y2="0.5" gradientUnits="userSpaceOnUse">
<stop stop-color="#C9C9C9"/>
<stop offset="1" stop-color="#3D28FF"/>
</linearGradient>
<linearGradient id="paint40_linear_115_106" x1="290.816" y1="0.5" x2="0" y2="0.5" gradientUnits="userSpaceOnUse">
<stop stop-color="#C9C9C9"/>
<stop offset="1" stop-color="#3D28FF"/>
</linearGradient>
<linearGradient id="paint41_linear_115_106" x1="290.816" y1="0.5" x2="0" y2="0.5" gradientUnits="userSpaceOnUse">
<stop stop-color="#C9C9C9"/>
<stop offset="1" stop-color="#3D28FF"/>
</linearGradient>
<linearGradient id="paint42_linear_115_106" x1="290.816" y1="0.5" x2="0" y2="0.5" gradientUnits="userSpaceOnUse">
<stop stop-color="#C9C9C9"/>
<stop offset="1" stop-color="#3D28FF"/>
</linearGradient>
<linearGradient id="paint43_linear_115_106" x1="290.816" y1="0.5" x2="0" y2="0.5" gradientUnits="userSpaceOnUse">
<stop stop-color="#C9C9C9"/>
<stop offset="1" stop-color="#3D28FF"/>
</linearGradient>
<linearGradient id="paint44_linear_115_106" x1="290.816" y1="0.5" x2="0" y2="0.5" gradientUnits="userSpaceOnUse">
<stop stop-color="#C9C9C9"/>
<stop offset="1" stop-color="#3D28FF"/>
</linearGradient>
<linearGradient id="paint45_linear_115_106" x1="290.816" y1="0.5" x2="0" y2="0.5" gradientUnits="userSpaceOnUse">
<stop stop-color="#C9C9C9"/>
<stop offset="1" stop-color="#3D28FF"/>
</linearGradient>
<linearGradient id="paint46_linear_115_106" x1="290.816" y1="0.5" x2="0" y2="0.5" gradientUnits="userSpaceOnUse">
<stop stop-color="#C9C9C9"/>
<stop offset="1" stop-color="#3D28FF"/>
</linearGradient>
<linearGradient id="paint47_linear_115_106" x1="290.816" y1="0.5" x2="0" y2="0.5" gradientUnits="userSpaceOnUse">
<stop stop-color="#C9C9C9"/>
<stop offset="1" stop-color="#3D28FF"/>
</linearGradient>
<linearGradient id="paint48_linear_115_106" x1="290.816" y1="0.5" x2="0" y2="0.5" gradientUnits="userSpaceOnUse">
<stop stop-color="#C9C9C9"/>
<stop offset="1" stop-color="#3D28FF"/>
</linearGradient>
<linearGradient id="paint49_linear_115_106" x1="290.816" y1="0.5" x2="0" y2="0.5" gradientUnits="userSpaceOnUse">
<stop stop-color="#C9C9C9"/>
<stop offset="1" stop-color="#3D28FF"/>
</linearGradient>
<linearGradient id="paint50_linear_115_106" x1="290.816" y1="0.5" x2="0" y2="0.5" gradientUnits="userSpaceOnUse">
<stop stop-color="#C9C9C9"/>
<stop offset="1" stop-color="#3D28FF"/>
</linearGradient>
<linearGradient id="paint51_linear_115_106" x1="290.816" y1="0.5" x2="0" y2="0.5" gradientUnits="userSpaceOnUse">
<stop stop-color="#C9C9C9"/>
<stop offset="1" stop-color="#3D28FF"/>
</linearGradient>
<linearGradient id="paint52_linear_115_106" x1="290.816" y1="0.5" x2="0" y2="0.5" gradientUnits="userSpaceOnUse">
<stop stop-color="#C9C9C9"/>
<stop offset="1" stop-color="#3D28FF"/>
</linearGradient>
<linearGradient id="paint53_linear_115_106" x1="290.816" y1="0.5" x2="0" y2="0.5" gradientUnits="userSpaceOnUse">
<stop stop-color="#C9C9C9"/>
<stop offset="1" stop-color="#3D28FF"/>
</linearGradient>
<linearGradient id="paint54_linear_115_106" x1="290.816" y1="0.5" x2="0" y2="0.5" gradientUnits="userSpaceOnUse">
<stop stop-color="#C9C9C9"/>
<stop offset="1" stop-color="#3D28FF"/>
</linearGradient>
<linearGradient id="paint55_linear_115_106" x1="290.816" y1="0.5" x2="0" y2="0.5" gradientUnits="userSpaceOnUse">
<stop stop-color="#C9C9C9"/>
<stop offset="1" stop-color="#3D28FF"/>
</linearGradient>
<linearGradient id="paint56_linear_115_106" x1="290.816" y1="0.5" x2="0" y2="0.5" gradientUnits="userSpaceOnUse">
<stop stop-color="#C9C9C9"/>
<stop offset="1" stop-color="#3D28FF"/>
</linearGradient>
<linearGradient id="paint57_linear_115_106" x1="290.816" y1="0.5" x2="0" y2="0.5" gradientUnits="userSpaceOnUse">
<stop stop-color="#C9C9C9"/>
<stop offset="1" stop-color="#3D28FF"/>
</linearGradient>
<linearGradient id="paint58_linear_115_106" x1="290.816" y1="0.5" x2="0" y2="0.5" gradientUnits="userSpaceOnUse">
<stop stop-color="#C9C9C9"/>
<stop offset="1" stop-color="#3D28FF"/>
</linearGradient>
<linearGradient id="paint59_linear_115_106" x1="290.816" y1="0.5" x2="0" y2="0.5" gradientUnits="userSpaceOnUse">
<stop stop-color="#C9C9C9"/>
<stop offset="1" stop-color="#3D28FF"/>
</linearGradient>
<linearGradient id="paint60_linear_115_106" x1="290.816" y1="0.5" x2="0" y2="0.5" gradientUnits="userSpaceOnUse">
<stop stop-color="#C9C9C9"/>
<stop offset="1" stop-color="#3D28FF"/>
</linearGradient>
<linearGradient id="paint61_linear_115_106" x1="290.816" y1="0.5" x2="0" y2="0.5" gradientUnits="userSpaceOnUse">
<stop stop-color="#C9C9C9"/>
<stop offset="1" stop-color="#3D28FF"/>
</linearGradient>
<clipPath id="clip0_115_106">
<rect width="390" height="844" rx="40" fill="white"/>
</clipPath>
</defs>
</svg>
