<svg width="290" height="26" viewBox="0 0 290 26" fill="none" xmlns="http://www.w3.org/2000/svg">
<path d="M8.44763 21.5265V15.7912H34.2431V21.5265H8.44763ZM0 25.2353L16.1787 0.764705H26.6628L42.9924 25.2353H32.6214L18.63 3.32647H24.2492L10.371 25.2353H0Z" fill="white"/>
<path d="M78.0407 11.2794V0.764705H87.4688V13C87.4688 15.1667 87.0666 17.0147 86.262 18.5441C85.4826 20.048 84.389 21.2971 82.981 22.2912C81.5731 23.2598 79.9515 24.0118 78.1161 24.5471C76.2808 25.0824 74.3071 25.452 72.1952 25.6559C70.1085 25.8853 67.984 26 65.8218 26C63.5339 26 61.3214 25.8853 59.1844 25.6559C57.0473 25.452 55.0611 25.0824 53.2258 24.5471C51.4156 24.0118 49.8316 23.2598 48.474 22.2912C47.1163 21.2971 46.0478 20.048 45.2684 18.5441C44.5142 17.0147 44.137 15.1667 44.137 13V0.764705H53.5652V11.2794C53.5652 13.3186 54.0554 14.8735 55.036 15.9441C56.0165 17.0147 57.4119 17.7539 59.2221 18.1618C61.0574 18.5441 63.2573 18.7353 65.8218 18.7353C68.3108 18.7353 70.473 18.5441 72.3084 18.1618C74.1437 17.7539 75.5516 17.0147 76.5322 15.9441C77.5378 14.8735 78.0407 13.3186 78.0407 11.2794Z" fill="white"/>
<path d="M114.737 26C111.469 26 108.465 25.7961 105.724 25.3882C103.009 25.0059 100.645 24.3431 98.6341 23.4C96.6479 22.4314 95.1017 21.1186 93.9955 19.4618C92.9144 17.8049 92.3738 15.7147 92.3738 13.1912C92.3738 10.6676 92.9269 8.56471 94.0332 6.88235C95.1394 5.17451 96.7234 3.82353 98.785 2.82941C100.872 1.8098 103.348 1.08333 106.214 0.650001C109.106 0.216667 112.324 0 115.869 0C120.52 0 124.417 0.433333 127.56 1.3C130.728 2.16667 133.141 3.40294 134.801 5.00882C136.46 6.58922 137.352 8.47549 137.478 10.6676H127.673C127.371 10.1069 126.818 9.57157 126.013 9.06177C125.209 8.52647 124.002 8.09314 122.393 7.76177C120.784 7.43039 118.609 7.26471 115.869 7.26471C112.651 7.26471 110.036 7.46863 108.025 7.87647C106.013 8.25882 104.542 8.88333 103.612 9.75C102.682 10.6167 102.217 11.7637 102.217 13.1912C102.217 14.4402 102.695 15.4725 103.65 16.2882C104.605 17.1039 106.139 17.7157 108.251 18.1235C110.363 18.5314 113.153 18.7353 116.623 18.7353C119.062 18.7353 121.174 18.6333 122.959 18.4294C124.769 18.2 126.403 17.8559 127.861 17.3971C129.345 16.9382 130.816 16.3647 132.274 15.6765L133.179 16.7853C131.62 19.7676 129.307 22.049 126.24 23.6294C123.172 25.2098 119.338 26 114.737 26ZM130.614 25.2353C130.614 24.4706 130.715 23.6039 130.916 22.6353C131.117 21.6667 131.369 20.6598 131.67 19.6147C131.997 18.5441 132.312 17.5373 132.613 16.5941H117.905V12.5794H138.006V25.2353H130.614Z" fill="white"/>
<path d="M177.184 11.2794V0.764705H186.612V13C186.612 15.1667 186.21 17.0147 185.405 18.5441C184.626 20.048 183.532 21.2971 182.124 22.2912C180.716 23.2598 179.094 24.0118 177.259 24.5471C175.424 25.0824 173.45 25.452 171.338 25.6559C169.251 25.8853 167.127 26 164.965 26C162.677 26 160.464 25.8853 158.327 25.6559C156.19 25.452 154.204 25.0824 152.369 24.5471C150.559 24.0118 148.975 23.2598 147.617 22.2912C146.259 21.2971 145.191 20.048 144.411 18.5441C143.657 17.0147 143.28 15.1667 143.28 13V0.764705H152.708V11.2794C152.708 13.3186 153.198 14.8735 154.179 15.9441C155.159 17.0147 156.555 17.7539 158.365 18.1618C160.2 18.5441 162.4 18.7353 164.965 18.7353C167.454 18.7353 169.616 18.5441 171.451 18.1618C173.287 17.7539 174.695 17.0147 175.675 15.9441C176.681 14.8735 177.184 13.3186 177.184 11.2794Z" fill="white"/>
<path d="M191.894 25.2353V0.764705H221.046C223.334 0.764705 225.383 1.03235 227.193 1.56765C229.028 2.07745 230.474 2.94412 231.53 4.16765C232.611 5.39118 233.152 7.06078 233.152 9.17647C233.152 10.5784 232.9 11.7382 232.397 12.6559C231.894 13.5735 231.203 14.2873 230.323 14.7971C229.443 15.3069 228.437 15.6765 227.306 15.9059C226.175 16.1353 224.993 16.2755 223.761 16.3265L221.008 15.7912C224 15.8167 226.3 15.9441 227.909 16.1735C229.544 16.4029 230.675 16.8235 231.304 17.4353C231.957 18.0216 232.284 18.8755 232.284 19.9971V25.2353H222.856V21.1441C222.856 20.3794 222.705 19.8059 222.403 19.4235C222.127 19.0157 221.498 18.7353 220.518 18.5824C219.562 18.4294 218.079 18.3529 216.068 18.3529H201.322V25.2353H191.894ZM201.322 11.9676H221.046C221.8 11.9676 222.429 11.8402 222.931 11.5853C223.459 11.3304 223.723 10.8461 223.723 10.1324C223.723 9.46961 223.459 9.02353 222.931 8.79412C222.429 8.53922 221.8 8.41177 221.046 8.41177H201.322V11.9676Z" fill="white"/>
<path d="M247.8 14.9118V17.9706H276.462V25.2353H238.372V0.764705H276.386V8.02941H247.8V11.0882H271.182V14.9118H247.8Z" fill="white"/>
<path d="M280.7 19.6056H290V25.2353H280.7V19.6056Z" fill="white"/>
</svg>
